<svg xmlns="http://www.w3.org/2000/svg" viewBox="0 0 488 370" width="488" height="370"><defs>
    <linearGradient id="gMuscle" x1="0" y1="0" x2="0" y2="1"><stop offset="0" stop-color="#E0AE9F"/><stop offset="0.5" stop-color="#B9776A"/><stop offset="1" stop-color="#8A4F43"/></linearGradient>
    <linearGradient id="gMuted" x1="0" y1="0" x2="0" y2="1"><stop offset="0" stop-color="#DCC5B9"/><stop offset="0.5" stop-color="#CBAE9F"/><stop offset="1" stop-color="#A98B7D"/></linearGradient>
    <linearGradient id="gTendon" x1="0" y1="0" x2="1" y2="0"><stop offset="0" stop-color="#EFE9DE"/><stop offset="0.5" stop-color="#EFE9DE"/><stop offset="1" stop-color="#CFC5B4"/></linearGradient>
    <linearGradient id="gVessel" x1="0" y1="0" x2="0" y2="1"><stop offset="0" stop-color="#DEA69E"/><stop offset="0.5" stop-color="#C4807A"/><stop offset="1" stop-color="#95574F"/></linearGradient>
    <linearGradient id="gSkin" x1="0" y1="0" x2="0" y2="1"><stop offset="0" stop-color="#F3EAE0"/><stop offset="0.5" stop-color="#EBDFD2"/><stop offset="1" stop-color="#CDB9A6"/></linearGradient>
    <radialGradient id="gFat" cx="0.35" cy="0.3" r="0.8"><stop offset="0" stop-color="#F7EEDA"/><stop offset="0.55" stop-color="#EBDCBB"/><stop offset="1" stop-color="#CDB48A"/></radialGradient>
    <radialGradient id="gLiver" cx="0.3" cy="0.25" r="0.8"><stop offset="0" stop-color="#BC8575"/><stop offset="0.55" stop-color="#9B6557"/><stop offset="1" stop-color="#6E4036"/></radialGradient>
    <radialGradient id="gBrain" cx="0.35" cy="0.25" r="0.8"><stop offset="0" stop-color="#EDD9D0"/><stop offset="0.55" stop-color="#D9BBB0"/><stop offset="1" stop-color="#B38E85"/></radialGradient>
    <radialGradient id="gLumen" cx="0.5" cy="0.5" r="0.8"><stop offset="0" stop-color="#E9C8C0"/><stop offset="0.55" stop-color="#95574F"/><stop offset="1" stop-color="#95574F"/></radialGradient>
    <radialGradient id="gRbc" cx="0.4" cy="0.4" r="0.8"><stop offset="0" stop-color="#D27B72"/><stop offset="0.55" stop-color="#B2534B"/><stop offset="1" stop-color="#B2534B"/></radialGradient>
    <radialGradient id="gMito" cx="0.35" cy="0.3" r="0.8"><stop offset="0" stop-color="#E8CFBF"/><stop offset="0.55" stop-color="#CDA893"/><stop offset="1" stop-color="#8E5A4C"/></radialGradient>
    <radialGradient id="gMol1" cx="0.35" cy="0.3" r="0.8"><stop offset="0" stop-color="#F4F1EB"/><stop offset="0.55" stop-color="#A9B3BC"/><stop offset="1" stop-color="#7F8B95"/></radialGradient>
    <radialGradient id="gMol2" cx="0.35" cy="0.3" r="0.8"><stop offset="0" stop-color="#F4F1EB"/><stop offset="0.55" stop-color="#ABA597"/><stop offset="1" stop-color="#827C70"/></radialGradient>
    <radialGradient id="gMol3" cx="0.35" cy="0.3" r="0.8"><stop offset="0" stop-color="#F4F1EB"/><stop offset="0.55" stop-color="#CFBEA8"/><stop offset="1" stop-color="#A28F77"/></radialGradient>
    <radialGradient id="gSat" cx="0.35" cy="0.3" r="0.8"><stop offset="0" stop-color="#D8CFE0"/><stop offset="0.55" stop-color="#9C8FA8"/><stop offset="1" stop-color="#6F6380"/></radialGradient>
    <filter id="shadow" x="-20%" y="-20%" width="140%" height="160%"><feDropShadow dx="0" dy="10" stdDeviation="10" flood-color="#362D28" flood-opacity="0.14"/></filter>
    <filter id="soft" x="-20%" y="-20%" width="140%" height="160%"><feDropShadow dx="0" dy="4" stdDeviation="4" flood-color="#362D28" flood-opacity="0.10"/></filter>
  </defs>
    <g ><circle cx="111.8" cy="130.8" r="4.2" fill="#ABA597"/><circle cx="110.5" cy="129.5" r="1.2" fill="#fff" opacity="0.55"/><circle cx="96.4" cy="140.9" r="7.1" fill="#ABA597"/><circle cx="94.2" cy="138.8" r="2.0" fill="#fff" opacity="0.55"/><circle cx="92.6" cy="165.8" r="6.7" fill="#ABA597"/><circle cx="90.6" cy="163.8" r="1.9" fill="#fff" opacity="0.55"/><circle cx="92.4" cy="183.3" r="4.7" fill="#ABA597"/><circle cx="91.0" cy="181.9" r="1.3" fill="#fff" opacity="0.55"/><circle cx="101.6" cy="199.2" r="6.9" fill="#ABA597"/><circle cx="99.5" cy="197.1" r="1.9" fill="#fff" opacity="0.55"/><circle cx="111.9" cy="219.3" r="6.8" fill="#ABA597"/><circle cx="109.9" cy="217.3" r="1.9" fill="#fff" opacity="0.55"/></g>
    <g ><circle cx="368.9" cy="123.8" r="5.1" fill="#A9B3BC"/><circle cx="367.4" cy="122.3" r="1.4" fill="#fff" opacity="0.55"/><circle cx="349.7" cy="130.6" r="5.2" fill="#A9B3BC"/><circle cx="348.2" cy="129.0" r="1.5" fill="#fff" opacity="0.55"/><circle cx="334.1" cy="146.1" r="6.6" fill="#A9B3BC"/><circle cx="332.1" cy="144.1" r="1.9" fill="#fff" opacity="0.55"/><circle cx="327.9" cy="162.2" r="7.0" fill="#A9B3BC"/><circle cx="325.8" cy="160.1" r="2.0" fill="#fff" opacity="0.55"/><circle cx="308.9" cy="184.7" r="4.1" fill="#A9B3BC"/><circle cx="307.6" cy="183.4" r="1.1" fill="#fff" opacity="0.55"/><circle cx="282.9" cy="191.4" r="7.5" fill="#A9B3BC"/><circle cx="280.6" cy="189.1" r="2.1" fill="#fff" opacity="0.55"/><circle cx="269.8" cy="216.1" r="6.9" fill="#A9B3BC"/><circle cx="267.7" cy="214.1" r="1.9" fill="#fff" opacity="0.55"/><circle cx="247.3" cy="236.8" r="7.9" fill="#A9B3BC"/><circle cx="245.0" cy="234.4" r="2.2" fill="#fff" opacity="0.55"/></g>
    <g ><circle cx="293.3" cy="295.8" r="6.0" fill="#CFBEA8"/><circle cx="291.5" cy="294.0" r="1.7" fill="#fff" opacity="0.55"/><circle cx="275.2" cy="302.6" r="7.3" fill="#CFBEA8"/><circle cx="273.0" cy="300.4" r="2.0" fill="#fff" opacity="0.55"/><circle cx="271.4" cy="304.0" r="6.5" fill="#CFBEA8"/><circle cx="269.4" cy="302.1" r="1.8" fill="#fff" opacity="0.55"/><circle cx="250.9" cy="305.2" r="5.3" fill="#CFBEA8"/><circle cx="249.4" cy="303.6" r="1.5" fill="#fff" opacity="0.55"/><circle cx="242.8" cy="299.0" r="5.3" fill="#CFBEA8"/><circle cx="241.2" cy="297.4" r="1.5" fill="#fff" opacity="0.55"/></g>
    <g transform="translate(112 80) rotate(-12) scale(1)" ><g ><path d="M-63,-7.5600000000000005 L-105,-4.32 L-105,4.32 L-63,7.5600000000000005 Z" fill="#EFE9DE"/><path d="M63,-7.5600000000000005 L105,-4.32 L105,4.32 L63,7.5600000000000005 Z" fill="#EFE9DE"/><path d="M-75,0 C-75,-14.850000000000001 -33.75,-27 0,-27 C33.75,-27 75,-14.850000000000001 75,0 C75,14.850000000000001 33.75,27 0,27 C-33.75,27 -75,14.850000000000001 -75,0 Z" fill="#B9776A" stroke="#8A4F43" stroke-opacity="0.5" stroke-width="1.5"/><path d="M-60,-9.45 C-22.5,-21.6 18.75,-21.6 56.25,-10.8" fill="none" stroke="#fff" stroke-opacity="0.22" stroke-width="4.859999999999999" stroke-linecap="round"/><path d="M-72,-3.9 C-30,-17.7 29.1,-17.7 72.75,-3.9" fill="none" stroke="#7A4539" stroke-opacity="0.32" stroke-width="1.6"/><path d="M-72,-2.9 C-30,-13.3 29.1,-13.3 72.75,-2.9" fill="none" stroke="#7A4539" stroke-opacity="0.32" stroke-width="1.6"/><path d="M-72,-1.9 C-30,-8.9 29.1,-8.9 72.75,-1.9" fill="none" stroke="#7A4539" stroke-opacity="0.32" stroke-width="1.6"/><path d="M-72,-1.0 C-30,-4.4 29.1,-4.4 72.75,-1.0" fill="none" stroke="#7A4539" stroke-opacity="0.32" stroke-width="1.6"/><path d="M-72,0.0 C-30,0.0 29.1,0.0 72.75,0.0" fill="none" stroke="#7A4539" stroke-opacity="0.32" stroke-width="1.6"/><path d="M-72,1.0 C-30,4.4 29.1,4.4 72.75,1.0" fill="none" stroke="#7A4539" stroke-opacity="0.32" stroke-width="1.6"/><path d="M-72,1.9 C-30,8.9 29.1,8.9 72.75,1.9" fill="none" stroke="#7A4539" stroke-opacity="0.32" stroke-width="1.6"/><path d="M-72,2.9 C-30,13.3 29.1,13.3 72.75,2.9" fill="none" stroke="#7A4539" stroke-opacity="0.32" stroke-width="1.6"/><path d="M-72,3.9 C-30,17.7 29.1,17.7 72.75,3.9" fill="none" stroke="#7A4539" stroke-opacity="0.32" stroke-width="1.6"/></g></g>
    <g transform="translate(415 82) rotate(0) scale(1)" ><g><path d="M20.0,-32.3 A38,38 0 1 0 20.0,32.3 A32.3,32.3 0 0 1 20.0,-32.3 Z" fill="#E2C9A8" stroke="#B9956F" stroke-opacity="0.6" stroke-width="1.5" stroke-linejoin="round"/>
    <circle cx="-17.1" cy="-15.200000000000001" r="4.94" fill="#fff" opacity="0.3"/><path d="M-53.199999999999996,-39.2 L-51.699999999999996,-35.7 L-48.199999999999996,-34.2 L-51.699999999999996,-32.7 L-53.199999999999996,-29.200000000000003 L-54.699999999999996,-32.7 L-58.199999999999996,-34.2 L-54.699999999999996,-35.7 Z" fill="#ABA597"/><path d="M57,-26.8 L58.2,-24 L61,-22.8 L58.2,-21.6 L57,-18.8 L55.8,-21.6 L53,-22.8 L55.8,-24 Z" fill="#ABA597"/><path d="M45.6,37.300000000000004 L46.95,40.45 L50.1,41.800000000000004 L46.95,43.150000000000006 L45.6,46.300000000000004 L44.25,43.150000000000006 L41.1,41.800000000000004 L44.25,40.45 Z" fill="#ABA597"/><path d="M-41.800000000000004,45.9 L-40.75000000000001,48.35 L-38.300000000000004,49.4 L-40.75000000000001,50.449999999999996 L-41.800000000000004,52.9 L-42.85,50.449999999999996 L-45.300000000000004,49.4 L-42.85,48.35 Z" fill="#ABA597"/></g></g>
    <g transform="translate(300 205) rotate(0) scale(0.42)" ><g ><path d="M210,290 C200,320 150,330 120,370" fill="none" stroke="#6F6356" stroke-width="7" stroke-linecap="round"/><path d="M210,290 C206,322 176,344 168,384" fill="none" stroke="#6F6356" stroke-width="7" stroke-linecap="round"/><path d="M210,290 C214,322 244,344 252,384" fill="none" stroke="#6F6356" stroke-width="7" stroke-linecap="round"/><path d="M210,290 C220,320 270,330 300,370" fill="none" stroke="#6F6356" stroke-width="7" stroke-linecap="round"/><path d="M198,292 C196,250 198,230 204,200 L216,200 C222,230 224,250 222,292 Z" fill="#6F6356" stroke="#4E453B" stroke-opacity="0.5" stroke-width="1.5"/><path d="M210,230 C200,200 170,190 150,170" fill="none" stroke="#6F6356" stroke-width="5" stroke-linecap="round"/><path d="M210,230 C220,200 250,190 270,172" fill="none" stroke="#6F6356" stroke-width="5" stroke-linecap="round"/><path d="M210,210 C206,180 200,160 190,140" fill="none" stroke="#6F6356" stroke-width="5" stroke-linecap="round"/><path d="M210,210 C216,180 226,160 236,142" fill="none" stroke="#6F6356" stroke-width="5" stroke-linecap="round"/><circle cx="210" cy="110" r="74" fill="#ABA597" stroke="#8E8779" stroke-opacity="0.6" stroke-width="1.5"/><circle cx="140" cy="140" r="52" fill="#ABA597" stroke="#8E8779" stroke-opacity="0.6" stroke-width="1.5"/><circle cx="280" cy="140" r="54" fill="#ABA597" stroke="#8E8779" stroke-opacity="0.6" stroke-width="1.5"/><circle cx="170" cy="90" r="44" fill="#ABA597" stroke="#8E8779" stroke-opacity="0.6" stroke-width="1.5"/><circle cx="252" cy="86" r="46" fill="#ABA597" stroke="#8E8779" stroke-opacity="0.6" stroke-width="1.5"/><circle cx="210" cy="160" r="40" fill="#ABA597" stroke="#8E8779" stroke-opacity="0.6" stroke-width="1.5"/><circle cx="190" cy="96" r="34" fill="#C9C3B5" opacity="0.5"/><circle cx="150" cy="150" r="10" fill="#B9776A" stroke="#8A4F43" stroke-opacity="0.6" stroke-width="1.2"/><circle cx="268" cy="150" r="10" fill="#B9776A" stroke="#8A4F43" stroke-opacity="0.6" stroke-width="1.2"/><circle cx="232" cy="110" r="9" fill="#B9776A" stroke="#8A4F43" stroke-opacity="0.6" stroke-width="1.2"/><circle cx="178" cy="118" r="9" fill="#B9776A" stroke="#8A4F43" stroke-opacity="0.6" stroke-width="1.2"/><circle cx="214" cy="172" r="8" fill="#B9776A" stroke="#8A4F43" stroke-opacity="0.6" stroke-width="1.2"/>
    <path d="M100,292 L320,292" stroke="#8E8779" stroke-opacity="0.5" stroke-width="1.5" stroke-dasharray="4 6"/></g></g>
    <g transform="translate(10 215) rotate(0) scale(1)" ><g><rect x="10" y="20" width="200" height="120" rx="26" fill="#EFE9DE" stroke="#CFC5B4" stroke-width="1.5"/>
    <rect x="22" y="30" width="176" height="100" rx="18" fill="none" stroke="#CFC5B4" stroke-opacity="0.6" stroke-width="1.5"/>
    <path d="M62,76 A52,52 0 0 1 158,76" fill="#F6F4F0" stroke="#CFC5B4" stroke-width="1.5"/>
    <path d="M62,76 L158,76" stroke="#CFC5B4" stroke-width="1.5"/><path d="M75.4,38.0 L70.2,35.0" stroke="#362D28" stroke-opacity="0.6" stroke-width="2" stroke-linecap="round"/><path d="M90.0,23.4 L87.0,18.2" stroke="#362D28" stroke-opacity="0.6" stroke-width="2" stroke-linecap="round"/><path d="M110.0,18.0 L110.0,12.0" stroke="#362D28" stroke-opacity="0.6" stroke-width="2" stroke-linecap="round"/><path d="M130.0,23.4 L133.0,18.2" stroke="#362D28" stroke-opacity="0.6" stroke-width="2" stroke-linecap="round"/><path d="M144.6,38.0 L149.8,35.0" stroke="#362D28" stroke-opacity="0.6" stroke-width="2" stroke-linecap="round"/>
    <path d="M110,74 L110.0,24.0" stroke="#B2534B" stroke-width="3" stroke-linecap="round"/><circle cx="110" cy="74" r="4" fill="#362D28"/>
    <path d="M40,40 C60,34 90,34 110,36" fill="none" stroke="#fff" stroke-opacity="0.35" stroke-width="6" stroke-linecap="round"/></g></g></svg>
