<svg xmlns="http://www.w3.org/2000/svg" viewBox="0 0 888 440" width="888" height="440"><defs>
    <linearGradient id="gMuscle" x1="0" y1="0" x2="0" y2="1"><stop offset="0" stop-color="#E0AE9F"/><stop offset="0.5" stop-color="#B9776A"/><stop offset="1" stop-color="#8A4F43"/></linearGradient>
    <linearGradient id="gMuted" x1="0" y1="0" x2="0" y2="1"><stop offset="0" stop-color="#DCC5B9"/><stop offset="0.5" stop-color="#CBAE9F"/><stop offset="1" stop-color="#A98B7D"/></linearGradient>
    <linearGradient id="gTendon" x1="0" y1="0" x2="1" y2="0"><stop offset="0" stop-color="#EFE9DE"/><stop offset="0.5" stop-color="#EFE9DE"/><stop offset="1" stop-color="#CFC5B4"/></linearGradient>
    <linearGradient id="gVessel" x1="0" y1="0" x2="0" y2="1"><stop offset="0" stop-color="#DEA69E"/><stop offset="0.5" stop-color="#C4807A"/><stop offset="1" stop-color="#95574F"/></linearGradient>
    <linearGradient id="gSkin" x1="0" y1="0" x2="0" y2="1"><stop offset="0" stop-color="#F3EAE0"/><stop offset="0.5" stop-color="#EBDFD2"/><stop offset="1" stop-color="#CDB9A6"/></linearGradient>
    <radialGradient id="gFat" cx="0.35" cy="0.3" r="0.8"><stop offset="0" stop-color="#F7EEDA"/><stop offset="0.55" stop-color="#EBDCBB"/><stop offset="1" stop-color="#CDB48A"/></radialGradient>
    <radialGradient id="gLiver" cx="0.3" cy="0.25" r="0.8"><stop offset="0" stop-color="#BC8575"/><stop offset="0.55" stop-color="#9B6557"/><stop offset="1" stop-color="#6E4036"/></radialGradient>
    <radialGradient id="gBrain" cx="0.35" cy="0.25" r="0.8"><stop offset="0" stop-color="#EDD9D0"/><stop offset="0.55" stop-color="#D9BBB0"/><stop offset="1" stop-color="#B38E85"/></radialGradient>
    <radialGradient id="gLumen" cx="0.5" cy="0.5" r="0.8"><stop offset="0" stop-color="#E9C8C0"/><stop offset="0.55" stop-color="#95574F"/><stop offset="1" stop-color="#95574F"/></radialGradient>
    <radialGradient id="gRbc" cx="0.4" cy="0.4" r="0.8"><stop offset="0" stop-color="#D27B72"/><stop offset="0.55" stop-color="#B2534B"/><stop offset="1" stop-color="#B2534B"/></radialGradient>
    <radialGradient id="gMito" cx="0.35" cy="0.3" r="0.8"><stop offset="0" stop-color="#E8CFBF"/><stop offset="0.55" stop-color="#CDA893"/><stop offset="1" stop-color="#8E5A4C"/></radialGradient>
    <radialGradient id="gMol1" cx="0.35" cy="0.3" r="0.8"><stop offset="0" stop-color="#F4F1EB"/><stop offset="0.55" stop-color="#A9B3BC"/><stop offset="1" stop-color="#7F8B95"/></radialGradient>
    <radialGradient id="gMol2" cx="0.35" cy="0.3" r="0.8"><stop offset="0" stop-color="#F4F1EB"/><stop offset="0.55" stop-color="#ABA597"/><stop offset="1" stop-color="#827C70"/></radialGradient>
    <radialGradient id="gMol3" cx="0.35" cy="0.3" r="0.8"><stop offset="0" stop-color="#F4F1EB"/><stop offset="0.55" stop-color="#CFBEA8"/><stop offset="1" stop-color="#A28F77"/></radialGradient>
    <radialGradient id="gSat" cx="0.35" cy="0.3" r="0.8"><stop offset="0" stop-color="#D8CFE0"/><stop offset="0.55" stop-color="#9C8FA8"/><stop offset="1" stop-color="#6F6380"/></radialGradient>
    <filter id="shadow" x="-20%" y="-20%" width="140%" height="160%"><feDropShadow dx="0" dy="10" stdDeviation="10" flood-color="#362D28" flood-opacity="0.14"/></filter>
    <filter id="soft" x="-20%" y="-20%" width="140%" height="160%"><feDropShadow dx="0" dy="4" stdDeviation="4" flood-color="#362D28" flood-opacity="0.10"/></filter>
  </defs>
    <g ><circle cx="582.4" cy="201.0" r="9.5" fill="#ABA597"/><circle cx="579.6" cy="198.2" r="2.7" fill="#fff" opacity="0.55"/><circle cx="557.2" cy="211.8" r="9.3" fill="#ABA597"/><circle cx="554.4" cy="209.0" r="2.6" fill="#fff" opacity="0.55"/><circle cx="548.0" cy="236.7" r="7.6" fill="#ABA597"/><circle cx="545.7" cy="234.4" r="2.1" fill="#fff" opacity="0.55"/><circle cx="523.1" cy="244.1" r="6.9" fill="#ABA597"/><circle cx="521.1" cy="242.1" r="1.9" fill="#fff" opacity="0.55"/><circle cx="491.1" cy="262.3" r="9.6" fill="#ABA597"/><circle cx="488.2" cy="259.4" r="2.7" fill="#fff" opacity="0.55"/><circle cx="480.1" cy="259.7" r="6.4" fill="#ABA597"/><circle cx="478.2" cy="257.8" r="1.8" fill="#fff" opacity="0.55"/><circle cx="458.5" cy="244.6" r="5.6" fill="#ABA597"/><circle cx="456.8" cy="242.9" r="1.6" fill="#fff" opacity="0.55"/><circle cx="434.6" cy="245.2" r="9.8" fill="#ABA597"/><circle cx="431.6" cy="242.3" r="2.8" fill="#fff" opacity="0.55"/><circle cx="416.8" cy="230.1" r="9.5" fill="#ABA597"/><circle cx="413.9" cy="227.2" r="2.7" fill="#fff" opacity="0.55"/></g>
    <g transform="translate(220 230) rotate(0) scale(1)" ><g><circle r="150" fill="#EFE9DE" stroke="#CFC5B4" stroke-width="1.5"/><path d="M117.0,0.0 L135.0,0.0" stroke="#362D28" stroke-opacity="0.5" stroke-width="2" stroke-linecap="round"/><path d="M111.7,64.5 L116.9,67.5" stroke="#362D28" stroke-opacity="0.5" stroke-width="2" stroke-linecap="round"/><path d="M64.5,111.7 L67.5,116.9" stroke="#362D28" stroke-opacity="0.5" stroke-width="2" stroke-linecap="round"/><path d="M0.0,117.0 L0.0,135.0" stroke="#362D28" stroke-opacity="0.5" stroke-width="2" stroke-linecap="round"/><path d="M-64.5,111.7 L-67.5,116.9" stroke="#362D28" stroke-opacity="0.5" stroke-width="2" stroke-linecap="round"/><path d="M-111.7,64.5 L-116.9,67.5" stroke="#362D28" stroke-opacity="0.5" stroke-width="2" stroke-linecap="round"/><path d="M-117.0,0.0 L-135.0,0.0" stroke="#362D28" stroke-opacity="0.5" stroke-width="2" stroke-linecap="round"/><path d="M-111.7,-64.5 L-116.9,-67.5" stroke="#362D28" stroke-opacity="0.5" stroke-width="2" stroke-linecap="round"/><path d="M-64.5,-111.7 L-67.5,-116.9" stroke="#362D28" stroke-opacity="0.5" stroke-width="2" stroke-linecap="round"/><path d="M-0.0,-117.0 L-0.0,-135.0" stroke="#362D28" stroke-opacity="0.5" stroke-width="2" stroke-linecap="round"/><path d="M64.5,-111.7 L67.5,-116.9" stroke="#362D28" stroke-opacity="0.5" stroke-width="2" stroke-linecap="round"/><path d="M111.7,-64.5 L116.9,-67.5" stroke="#362D28" stroke-opacity="0.5" stroke-width="2" stroke-linecap="round"/>
    <path d="M0,0 L82.5,0.0" stroke="#362D28" stroke-width="3.5" stroke-linecap="round"/>
    <path d="M0,0 L0,-112.5" stroke="#362D28" stroke-width="2.5" stroke-linecap="round"/><circle r="4" fill="#362D28"/>
    <circle cx="-52.5" cy="-67.5" r="21.000000000000004" fill="#fff" opacity="0.3"/></g></g>
    <g transform="translate(580 40) rotate(0) scale(2.2)" ><g ><path d="M56,30 C84,26 104,56 102,96 C100,136 76,164 50,160 C22,156 8,128 12,96 C16,66 30,34 56,30 Z" fill="#B86F65" stroke="#834A42" stroke-opacity="0.6" stroke-width="1.5"/>
    <path d="M26,70 C34,86 34,110 28,126" fill="none" stroke="#834A42" stroke-opacity="0.5" stroke-width="3" stroke-linecap="round"/>
    <path d="M30,38 C34,20 56,8 78,14 C86,18 84,30 72,34 C58,38 44,40 30,38 Z" fill="#DCC08E" stroke="#A98A52" stroke-opacity="0.7" stroke-width="1.5"/>
    <ellipse cx="70" cy="60" rx="10" ry="18" fill="#fff" opacity="0.18" transform="rotate(-10 70 60)"/></g></g></svg>
