<svg xmlns="http://www.w3.org/2000/svg" viewBox="0 0 888 440" width="888" height="440"><defs>
    <linearGradient id="gMuscle" x1="0" y1="0" x2="0" y2="1"><stop offset="0" stop-color="#E0AE9F"/><stop offset="0.5" stop-color="#B9776A"/><stop offset="1" stop-color="#8A4F43"/></linearGradient>
    <linearGradient id="gMuted" x1="0" y1="0" x2="0" y2="1"><stop offset="0" stop-color="#DCC5B9"/><stop offset="0.5" stop-color="#CBAE9F"/><stop offset="1" stop-color="#A98B7D"/></linearGradient>
    <linearGradient id="gTendon" x1="0" y1="0" x2="1" y2="0"><stop offset="0" stop-color="#EFE9DE"/><stop offset="0.5" stop-color="#EFE9DE"/><stop offset="1" stop-color="#CFC5B4"/></linearGradient>
    <linearGradient id="gVessel" x1="0" y1="0" x2="0" y2="1"><stop offset="0" stop-color="#DEA69E"/><stop offset="0.5" stop-color="#C4807A"/><stop offset="1" stop-color="#95574F"/></linearGradient>
    <linearGradient id="gSkin" x1="0" y1="0" x2="0" y2="1"><stop offset="0" stop-color="#F3EAE0"/><stop offset="0.5" stop-color="#EBDFD2"/><stop offset="1" stop-color="#CDB9A6"/></linearGradient>
    <radialGradient id="gFat" cx="0.35" cy="0.3" r="0.8"><stop offset="0" stop-color="#F7EEDA"/><stop offset="0.55" stop-color="#EBDCBB"/><stop offset="1" stop-color="#CDB48A"/></radialGradient>
    <radialGradient id="gLiver" cx="0.3" cy="0.25" r="0.8"><stop offset="0" stop-color="#BC8575"/><stop offset="0.55" stop-color="#9B6557"/><stop offset="1" stop-color="#6E4036"/></radialGradient>
    <radialGradient id="gBrain" cx="0.35" cy="0.25" r="0.8"><stop offset="0" stop-color="#EDD9D0"/><stop offset="0.55" stop-color="#D9BBB0"/><stop offset="1" stop-color="#B38E85"/></radialGradient>
    <radialGradient id="gLumen" cx="0.5" cy="0.5" r="0.8"><stop offset="0" stop-color="#E9C8C0"/><stop offset="0.55" stop-color="#95574F"/><stop offset="1" stop-color="#95574F"/></radialGradient>
    <radialGradient id="gRbc" cx="0.4" cy="0.4" r="0.8"><stop offset="0" stop-color="#D27B72"/><stop offset="0.55" stop-color="#B2534B"/><stop offset="1" stop-color="#B2534B"/></radialGradient>
    <radialGradient id="gMito" cx="0.35" cy="0.3" r="0.8"><stop offset="0" stop-color="#E8CFBF"/><stop offset="0.55" stop-color="#CDA893"/><stop offset="1" stop-color="#8E5A4C"/></radialGradient>
    <radialGradient id="gMol1" cx="0.35" cy="0.3" r="0.8"><stop offset="0" stop-color="#F4F1EB"/><stop offset="0.55" stop-color="#A9B3BC"/><stop offset="1" stop-color="#7F8B95"/></radialGradient>
    <radialGradient id="gMol2" cx="0.35" cy="0.3" r="0.8"><stop offset="0" stop-color="#F4F1EB"/><stop offset="0.55" stop-color="#ABA597"/><stop offset="1" stop-color="#827C70"/></radialGradient>
    <radialGradient id="gMol3" cx="0.35" cy="0.3" r="0.8"><stop offset="0" stop-color="#F4F1EB"/><stop offset="0.55" stop-color="#CFBEA8"/><stop offset="1" stop-color="#A28F77"/></radialGradient>
    <radialGradient id="gSat" cx="0.35" cy="0.3" r="0.8"><stop offset="0" stop-color="#D8CFE0"/><stop offset="0.55" stop-color="#9C8FA8"/><stop offset="1" stop-color="#6F6380"/></radialGradient>
    <filter id="shadow" x="-20%" y="-20%" width="140%" height="160%"><feDropShadow dx="0" dy="10" stdDeviation="10" flood-color="#362D28" flood-opacity="0.14"/></filter>
    <filter id="soft" x="-20%" y="-20%" width="140%" height="160%"><feDropShadow dx="0" dy="4" stdDeviation="4" flood-color="#362D28" flood-opacity="0.10"/></filter>
  </defs>
    <g ><circle cx="411.5" cy="213.1" r="8.7" fill="#A9B3BC"/><circle cx="408.9" cy="210.5" r="2.4" fill="#fff" opacity="0.55"/><circle cx="438.9" cy="205.5" r="4.0" fill="#A9B3BC"/><circle cx="437.7" cy="204.3" r="1.1" fill="#fff" opacity="0.55"/><circle cx="448.8" cy="198.1" r="7.2" fill="#A9B3BC"/><circle cx="446.6" cy="196.0" r="2.0" fill="#fff" opacity="0.55"/><circle cx="484.6" cy="180.3" r="8.6" fill="#A9B3BC"/><circle cx="482.0" cy="177.7" r="2.4" fill="#fff" opacity="0.55"/><circle cx="499.9" cy="177.7" r="4.9" fill="#A9B3BC"/><circle cx="498.4" cy="176.3" r="1.4" fill="#fff" opacity="0.55"/><circle cx="520.2" cy="161.8" r="4.6" fill="#A9B3BC"/><circle cx="518.8" cy="160.4" r="1.3" fill="#fff" opacity="0.55"/><circle cx="552.9" cy="176.1" r="10.0" fill="#A9B3BC"/><circle cx="549.9" cy="173.1" r="2.8" fill="#fff" opacity="0.55"/><circle cx="569.6" cy="174.0" r="5.7" fill="#A9B3BC"/><circle cx="567.9" cy="172.2" r="1.6" fill="#fff" opacity="0.55"/><circle cx="595.7" cy="181.0" r="6.3" fill="#A9B3BC"/><circle cx="593.8" cy="179.1" r="1.8" fill="#fff" opacity="0.55"/></g>
    <g transform="translate(270 230) rotate(0) scale(1)" ><g  transform="scale(1.75)"><circle cx="8" cy="-48" r="24" fill="#EBDCBB" stroke="#CDB48A" stroke-opacity="0.7" stroke-width="1.5"/><circle cx="16.4" cy="-40.8" r="3.3600000000000003" fill="#CDB48A" opacity="0.6"/><circle cx="-40" cy="-26" r="28" fill="#EBDCBB" stroke="#CDB48A" stroke-opacity="0.7" stroke-width="1.5"/><circle cx="-30.200000000000003" cy="-17.6" r="3.9200000000000004" fill="#CDB48A" opacity="0.6"/><circle cx="48" cy="-18" r="30" fill="#EBDCBB" stroke="#CDB48A" stroke-opacity="0.7" stroke-width="1.5"/><circle cx="58.5" cy="-9" r="4.2" fill="#CDB48A" opacity="0.6"/><circle cx="-58" cy="6" r="24" fill="#EBDCBB" stroke="#CDB48A" stroke-opacity="0.7" stroke-width="1.5"/><circle cx="-49.6" cy="13.2" r="3.3600000000000003" fill="#CDB48A" opacity="0.6"/><circle cx="62" cy="22" r="24" fill="#EBDCBB" stroke="#CDB48A" stroke-opacity="0.7" stroke-width="1.5"/><circle cx="70.4" cy="29.2" r="3.3600000000000003" fill="#CDB48A" opacity="0.6"/><circle cx="0" cy="0" r="34" fill="#EBDCBB" stroke="#CDB48A" stroke-opacity="0.7" stroke-width="1.5"/><circle cx="11.899999999999999" cy="10.2" r="4.760000000000001" fill="#CDB48A" opacity="0.6"/><circle cx="-28" cy="34" r="26" fill="#EBDCBB" stroke="#CDB48A" stroke-opacity="0.7" stroke-width="1.5"/><circle cx="-18.9" cy="41.8" r="3.6400000000000006" fill="#CDB48A" opacity="0.6"/><circle cx="30" cy="34" r="30" fill="#EBDCBB" stroke="#CDB48A" stroke-opacity="0.7" stroke-width="1.5"/><circle cx="40.5" cy="43" r="4.2" fill="#CDB48A" opacity="0.6"/><circle cx="-12" cy="62" r="22" fill="#EBDCBB" stroke="#CDB48A" stroke-opacity="0.7" stroke-width="1.5"/><circle cx="-4.300000000000001" cy="68.6" r="3.08" fill="#CDB48A" opacity="0.6"/><circle cx="44" cy="52" r="20" fill="#EBDCBB" stroke="#CDB48A" stroke-opacity="0.7" stroke-width="1.5"/><circle cx="51" cy="58" r="2.8000000000000003" fill="#CDB48A" opacity="0.6"/></g></g>
    <g transform="translate(470 320) rotate(0) scale(1)" ><g ><circle cx="-14.4" cy="27.7" r="7.0" fill="#A9B3BC"/><circle cx="-16.5" cy="25.6" r="1.9" fill="#fff" opacity="0.55"/><circle cx="-11.2" cy="8.2" r="11.7" fill="#A9B3BC"/><circle cx="-14.8" cy="4.6" r="3.3" fill="#fff" opacity="0.55"/><circle cx="32.6" cy="-8.2" r="10.9" fill="#A9B3BC"/><circle cx="29.3" cy="-11.5" r="3.0" fill="#fff" opacity="0.55"/><circle cx="6.3" cy="3.6" r="7.2" fill="#A9B3BC"/><circle cx="4.1" cy="1.5" r="2.0" fill="#fff" opacity="0.55"/><circle cx="9.0" cy="8.7" r="10.8" fill="#A9B3BC"/><circle cx="5.7" cy="5.4" r="3.0" fill="#fff" opacity="0.55"/><circle cx="-0.2" cy="-28.1" r="10.5" fill="#A9B3BC"/><circle cx="-3.3" cy="-31.3" r="2.9" fill="#fff" opacity="0.55"/><circle cx="8.0" cy="-21.7" r="9.1" fill="#A9B3BC"/><circle cx="5.3" cy="-24.4" r="2.6" fill="#fff" opacity="0.55"/><circle cx="-7.3" cy="-7.1" r="9.7" fill="#A9B3BC"/><circle cx="-10.2" cy="-10.0" r="2.7" fill="#fff" opacity="0.55"/><circle cx="-16.9" cy="-19.3" r="8.2" fill="#A9B3BC"/><circle cx="-19.4" cy="-21.7" r="2.3" fill="#fff" opacity="0.55"/></g></g>
    <g transform="translate(590 110) rotate(0) scale(1.2)" ><g ><path d="M10,60 C10,25 50,10 95,12 C150,14 210,30 212,70 C214,100 180,122 140,126 C100,130 60,135 35,115 C15,100 8,80 10,60 Z" fill="#9B6557" stroke="#6E4036" stroke-opacity="0.6" stroke-width="1.5"/>
    <path d="M118,16 C124,60 118,96 104,126" fill="none" stroke="#6E4036" stroke-opacity="0.5" stroke-width="3"/>
    <ellipse cx="60" cy="52" rx="34" ry="14" fill="#fff" opacity="0.18" transform="rotate(-12 60 52)"/>
    <ellipse cx="128" cy="116" rx="24" ry="11" fill="#B7A676"/></g></g></svg>
