<svg xmlns="http://www.w3.org/2000/svg" viewBox="0 0 888 440" width="888" height="440"><defs>
    <linearGradient id="gMuscle" x1="0" y1="0" x2="0" y2="1"><stop offset="0" stop-color="#E0AE9F"/><stop offset="0.5" stop-color="#B9776A"/><stop offset="1" stop-color="#8A4F43"/></linearGradient>
    <linearGradient id="gMuted" x1="0" y1="0" x2="0" y2="1"><stop offset="0" stop-color="#DCC5B9"/><stop offset="0.5" stop-color="#CBAE9F"/><stop offset="1" stop-color="#A98B7D"/></linearGradient>
    <linearGradient id="gTendon" x1="0" y1="0" x2="1" y2="0"><stop offset="0" stop-color="#EFE9DE"/><stop offset="0.5" stop-color="#EFE9DE"/><stop offset="1" stop-color="#CFC5B4"/></linearGradient>
    <linearGradient id="gVessel" x1="0" y1="0" x2="0" y2="1"><stop offset="0" stop-color="#DEA69E"/><stop offset="0.5" stop-color="#C4807A"/><stop offset="1" stop-color="#95574F"/></linearGradient>
    <linearGradient id="gSkin" x1="0" y1="0" x2="0" y2="1"><stop offset="0" stop-color="#F3EAE0"/><stop offset="0.5" stop-color="#EBDFD2"/><stop offset="1" stop-color="#CDB9A6"/></linearGradient>
    <radialGradient id="gFat" cx="0.35" cy="0.3" r="0.8"><stop offset="0" stop-color="#F7EEDA"/><stop offset="0.55" stop-color="#EBDCBB"/><stop offset="1" stop-color="#CDB48A"/></radialGradient>
    <radialGradient id="gLiver" cx="0.3" cy="0.25" r="0.8"><stop offset="0" stop-color="#BC8575"/><stop offset="0.55" stop-color="#9B6557"/><stop offset="1" stop-color="#6E4036"/></radialGradient>
    <radialGradient id="gBrain" cx="0.35" cy="0.25" r="0.8"><stop offset="0" stop-color="#EDD9D0"/><stop offset="0.55" stop-color="#D9BBB0"/><stop offset="1" stop-color="#B38E85"/></radialGradient>
    <radialGradient id="gLumen" cx="0.5" cy="0.5" r="0.8"><stop offset="0" stop-color="#E9C8C0"/><stop offset="0.55" stop-color="#95574F"/><stop offset="1" stop-color="#95574F"/></radialGradient>
    <radialGradient id="gRbc" cx="0.4" cy="0.4" r="0.8"><stop offset="0" stop-color="#D27B72"/><stop offset="0.55" stop-color="#B2534B"/><stop offset="1" stop-color="#B2534B"/></radialGradient>
    <radialGradient id="gMito" cx="0.35" cy="0.3" r="0.8"><stop offset="0" stop-color="#E8CFBF"/><stop offset="0.55" stop-color="#CDA893"/><stop offset="1" stop-color="#8E5A4C"/></radialGradient>
    <radialGradient id="gMol1" cx="0.35" cy="0.3" r="0.8"><stop offset="0" stop-color="#F4F1EB"/><stop offset="0.55" stop-color="#A9B3BC"/><stop offset="1" stop-color="#7F8B95"/></radialGradient>
    <radialGradient id="gMol2" cx="0.35" cy="0.3" r="0.8"><stop offset="0" stop-color="#F4F1EB"/><stop offset="0.55" stop-color="#ABA597"/><stop offset="1" stop-color="#827C70"/></radialGradient>
    <radialGradient id="gMol3" cx="0.35" cy="0.3" r="0.8"><stop offset="0" stop-color="#F4F1EB"/><stop offset="0.55" stop-color="#CFBEA8"/><stop offset="1" stop-color="#A28F77"/></radialGradient>
    <radialGradient id="gSat" cx="0.35" cy="0.3" r="0.8"><stop offset="0" stop-color="#D8CFE0"/><stop offset="0.55" stop-color="#9C8FA8"/><stop offset="1" stop-color="#6F6380"/></radialGradient>
    <filter id="shadow" x="-20%" y="-20%" width="140%" height="160%"><feDropShadow dx="0" dy="10" stdDeviation="10" flood-color="#362D28" flood-opacity="0.14"/></filter>
    <filter id="soft" x="-20%" y="-20%" width="140%" height="160%"><feDropShadow dx="0" dy="4" stdDeviation="4" flood-color="#362D28" flood-opacity="0.10"/></filter>
  </defs>
    <g transform="translate(300 240) rotate(0) scale(1)" ><g><path d="M79.1,-127.5 A150,150 0 1 0 79.1,127.5 A127.5,127.5 0 0 1 79.1,-127.5 Z" fill="#E2C9A8" stroke="#B9956F" stroke-opacity="0.6" stroke-width="1.5" stroke-linejoin="round"/>
    <circle cx="-67.5" cy="-60" r="19.5" fill="#fff" opacity="0.3"/><path d="M-210,-140 L-208.5,-136.5 L-205,-135 L-208.5,-133.5 L-210,-130 L-211.5,-133.5 L-215,-135 L-211.5,-136.5 Z" fill="#ABA597"/><path d="M225,-94 L226.2,-91.2 L229,-90 L226.2,-88.8 L225,-86 L223.8,-88.8 L221,-90 L223.8,-91.2 Z" fill="#ABA597"/><path d="M180,160.5 L181.35,163.65 L184.5,165 L181.35,166.35 L180,169.5 L178.65,166.35 L175.5,165 L178.65,163.65 Z" fill="#ABA597"/><path d="M-165,191.5 L-163.95,193.95 L-161.5,195 L-163.95,196.05 L-165,198.5 L-166.05,196.05 L-168.5,195 L-166.05,193.95 Z" fill="#ABA597"/></g></g>
    <g transform="translate(490 240) rotate(0) scale(1)" ><path d="M53.5,-59.5 A80,80 0 0 1 53.5,59.5" fill="none" stroke="#6F6356" stroke-width="2.5" stroke-linecap="round" opacity="0.75"/><path d="M83.0,-92.1 A124,124 0 0 1 83.0,92.1" fill="none" stroke="#6F6356" stroke-width="2.5" stroke-linecap="round" opacity="0.59"/><path d="M112.4,-124.8 A168,168 0 0 1 112.4,124.8" fill="none" stroke="#6F6356" stroke-width="2.5" stroke-linecap="round" opacity="0.43"/><path d="M141.9,-157.5 A212,212 0 0 1 141.9,157.5" fill="none" stroke="#6F6356" stroke-width="2.5" stroke-linecap="round" opacity="0.27"/><path d="M171.3,-190.2 A256,256 0 0 1 171.3,190.2" fill="none" stroke="#6F6356" stroke-width="2.5" stroke-linecap="round" opacity="0.11"/><path d="M200.7,-222.9 A300,300 0 0 1 200.7,222.9" fill="none" stroke="#6F6356" stroke-width="2.5" stroke-linecap="round" opacity="-0.05"/></g></svg>
