<svg xmlns="http://www.w3.org/2000/svg" viewBox="0 0 520 900" width="520" height="900"><defs>
    <linearGradient id="gMuscle" x1="0" y1="0" x2="0" y2="1"><stop offset="0" stop-color="#E0AE9F"/><stop offset="0.5" stop-color="#B9776A"/><stop offset="1" stop-color="#8A4F43"/></linearGradient>
    <linearGradient id="gMuted" x1="0" y1="0" x2="0" y2="1"><stop offset="0" stop-color="#DCC5B9"/><stop offset="0.5" stop-color="#CBAE9F"/><stop offset="1" stop-color="#A98B7D"/></linearGradient>
    <linearGradient id="gTendon" x1="0" y1="0" x2="1" y2="0"><stop offset="0" stop-color="#EFE9DE"/><stop offset="0.5" stop-color="#EFE9DE"/><stop offset="1" stop-color="#CFC5B4"/></linearGradient>
    <linearGradient id="gVessel" x1="0" y1="0" x2="0" y2="1"><stop offset="0" stop-color="#DEA69E"/><stop offset="0.5" stop-color="#C4807A"/><stop offset="1" stop-color="#95574F"/></linearGradient>
    <linearGradient id="gSkin" x1="0" y1="0" x2="0" y2="1"><stop offset="0" stop-color="#F3EAE0"/><stop offset="0.5" stop-color="#EBDFD2"/><stop offset="1" stop-color="#CDB9A6"/></linearGradient>
    <radialGradient id="gFat" cx="0.35" cy="0.3" r="0.8"><stop offset="0" stop-color="#F7EEDA"/><stop offset="0.55" stop-color="#EBDCBB"/><stop offset="1" stop-color="#CDB48A"/></radialGradient>
    <radialGradient id="gLiver" cx="0.3" cy="0.25" r="0.8"><stop offset="0" stop-color="#BC8575"/><stop offset="0.55" stop-color="#9B6557"/><stop offset="1" stop-color="#6E4036"/></radialGradient>
    <radialGradient id="gBrain" cx="0.35" cy="0.25" r="0.8"><stop offset="0" stop-color="#EDD9D0"/><stop offset="0.55" stop-color="#D9BBB0"/><stop offset="1" stop-color="#B38E85"/></radialGradient>
    <radialGradient id="gLumen" cx="0.5" cy="0.5" r="0.8"><stop offset="0" stop-color="#E9C8C0"/><stop offset="0.55" stop-color="#95574F"/><stop offset="1" stop-color="#95574F"/></radialGradient>
    <radialGradient id="gRbc" cx="0.4" cy="0.4" r="0.8"><stop offset="0" stop-color="#D27B72"/><stop offset="0.55" stop-color="#B2534B"/><stop offset="1" stop-color="#B2534B"/></radialGradient>
    <radialGradient id="gMito" cx="0.35" cy="0.3" r="0.8"><stop offset="0" stop-color="#E8CFBF"/><stop offset="0.55" stop-color="#CDA893"/><stop offset="1" stop-color="#8E5A4C"/></radialGradient>
    <radialGradient id="gMol1" cx="0.35" cy="0.3" r="0.8"><stop offset="0" stop-color="#F4F1EB"/><stop offset="0.55" stop-color="#A9B3BC"/><stop offset="1" stop-color="#7F8B95"/></radialGradient>
    <radialGradient id="gMol2" cx="0.35" cy="0.3" r="0.8"><stop offset="0" stop-color="#F4F1EB"/><stop offset="0.55" stop-color="#ABA597"/><stop offset="1" stop-color="#827C70"/></radialGradient>
    <radialGradient id="gMol3" cx="0.35" cy="0.3" r="0.8"><stop offset="0" stop-color="#F4F1EB"/><stop offset="0.55" stop-color="#CFBEA8"/><stop offset="1" stop-color="#A28F77"/></radialGradient>
    <radialGradient id="gSat" cx="0.35" cy="0.3" r="0.8"><stop offset="0" stop-color="#D8CFE0"/><stop offset="0.55" stop-color="#9C8FA8"/><stop offset="1" stop-color="#6F6380"/></radialGradient>
    <filter id="shadow" x="-20%" y="-20%" width="140%" height="160%"><feDropShadow dx="0" dy="10" stdDeviation="10" flood-color="#362D28" flood-opacity="0.14"/></filter>
    <filter id="soft" x="-20%" y="-20%" width="140%" height="160%"><feDropShadow dx="0" dy="4" stdDeviation="4" flood-color="#362D28" flood-opacity="0.10"/></filter>
  </defs>
    <g filter="url(#soft)"><circle cx="333.8" cy="251.7" r="5.9" fill="url(#gMol2)"/><circle cx="361.2" cy="227.0" r="6.2" fill="url(#gMol2)"/><circle cx="393.2" cy="203.7" r="7.6" fill="url(#gMol2)"/><circle cx="419.8" cy="174.7" r="4.1" fill="url(#gMol3)"/><circle cx="442.1" cy="163.5" r="4.8" fill="url(#gMol1)"/><circle cx="443.6" cy="148.3" r="7.1" fill="url(#gMol3)"/><circle cx="458.5" cy="118.0" r="7.6" fill="url(#gMol1)"/></g>
    <g filter="url(#soft)"><circle cx="323.3" cy="535.5" r="8.1" fill="url(#gMol2)"/><circle cx="319.5" cy="541.6" r="4.8" fill="url(#gMol3)"/><circle cx="340.3" cy="568.0" r="7.8" fill="url(#gMol2)"/><circle cx="376.3" cy="586.0" r="7.1" fill="url(#gMol3)"/><circle cx="381.1" cy="605.5" r="5.6" fill="url(#gMol1)"/><circle cx="413.5" cy="643.8" r="8.0" fill="url(#gMol2)"/><circle cx="446.3" cy="641.2" r="8.8" fill="url(#gMol3)"/><circle cx="442.0" cy="643.1" r="8.5" fill="url(#gMol3)"/></g>
    <g filter="url(#soft)"><circle cx="211.2" cy="343.6" r="5.8" fill="url(#gMol2)"/><circle cx="187.4" cy="337.6" r="7.0" fill="url(#gMol2)"/><circle cx="154.4" cy="353.3" r="7.2" fill="url(#gMol1)"/><circle cx="122.5" cy="342.8" r="6.2" fill="url(#gMol1)"/><circle cx="93.7" cy="374.7" r="4.3" fill="url(#gMol2)"/><circle cx="79.5" cy="384.4" r="6.2" fill="url(#gMol2)"/><circle cx="75.8" cy="395.3" r="7.2" fill="url(#gMol1)"/></g>
    <g><g opacity="0.95">
    <line x1="272" y1="208" x2="196" y2="292" stroke="#A98B7D" stroke-width="30" stroke-linecap="round"/><line x1="196" y1="292" x2="152" y2="236" stroke="#A98B7D" stroke-width="24" stroke-linecap="round"/>
    <line x1="222" y1="446" x2="166" y2="590" stroke="#A98B7D" stroke-width="50" stroke-linecap="round"/><line x1="166" y1="590" x2="120" y2="712" stroke="#A98B7D" stroke-width="34" stroke-linecap="round"/>
    <path d="M130,700 L86,752 L100,764 L142,716 Z" fill="#CDB9A6"/>
    <ellipse cx="152" cy="236" rx="12" ry="16" fill="#CDB9A6" transform="rotate(20 152 236)"/>
    <g transform="translate(0 0) rotate(0) scale(1)" ><g transform="translate(194 518) rotate(111.25050550713324) scale(1)" ><g ><path d="M-49.8022653306495,-5.6000000000000005 L-86.52317146290929,-3.2 L-86.52317146290929,3.2 L-49.8022653306495,5.6000000000000005 Z" fill="url(#gTendon)"/><path d="M49.8022653306495,-5.6000000000000005 L86.52317146290929,-3.2 L86.52317146290929,3.2 L49.8022653306495,5.6000000000000005 Z" fill="url(#gTendon)"/><path d="M-61.8022653306495,0 C-61.8022653306495,-11 -27.811019398792276,-20 0,-20 C27.811019398792276,-20 61.8022653306495,-11 61.8022653306495,0 C61.8022653306495,11 27.811019398792276,20 0,20 C-27.811019398792276,20 -61.8022653306495,11 -61.8022653306495,0 Z" fill="url(#gMuted)"/><path d="M-49.4418122645196,-7 C-18.54067959919485,-16 15.450566332662374,-16 46.35169899798712,-8" fill="none" stroke="#fff" stroke-opacity="0.22" stroke-width="3.5999999999999996" stroke-linecap="round"/><path d="M-59.33017471742352,-2.2 C-24.7209061322598,-9.8 23.979278948292006,-9.8 59.948197370730014,-2.2" fill="none" stroke="#7A4539" stroke-opacity="0.32" stroke-width="1.6"/><path d="M-59.33017471742352,-0.7 C-24.7209061322598,-3.3 23.979278948292006,-3.3 59.948197370730014,-0.7" fill="none" stroke="#7A4539" stroke-opacity="0.32" stroke-width="1.6"/><path d="M-59.33017471742352,0.7 C-24.7209061322598,3.3 23.979278948292006,3.3 59.948197370730014,0.7" fill="none" stroke="#7A4539" stroke-opacity="0.32" stroke-width="1.6"/><path d="M-59.33017471742352,2.2 C-24.7209061322598,9.8 23.979278948292006,9.8 59.948197370730014,2.2" fill="none" stroke="#7A4539" stroke-opacity="0.32" stroke-width="1.6"/></g></g></g>
  </g><g filter="url(#shadow)">
    <path d="M306,170 C336,196 356,236 352,282 C350,330 338,370 318,402 C310,428 304,446 300,456 L214,462 C216,430 220,400 226,366 C236,318 246,266 262,232 C270,214 278,190 284,172 Z" fill="url(#gMuscle)"/>
    <g transform="translate(330 248) rotate(-18) scale(1)" ><g ><path d="M-38,0 C-38,-12.65 -17.1,-23 0,-23 C17.1,-23 38,-12.65 38,0 C38,12.65 17.1,23 0,23 C-17.1,23 -38,12.65 -38,0 Z" fill="url(#gMuscle)"/><path d="M-30.400000000000002,-8.049999999999999 C-11.4,-18.400000000000002 9.5,-18.400000000000002 28.5,-9.200000000000001" fill="none" stroke="#fff" stroke-opacity="0.22" stroke-width="4.14" stroke-linecap="round"/><path d="M-36.48,-2.8 C-15.200000000000001,-12.6 14.744,-12.6 36.86,-2.8" fill="none" stroke="#7A4539" stroke-opacity="0.32" stroke-width="1.6"/><path d="M-36.48,-1.4 C-15.200000000000001,-6.3 14.744,-6.3 36.86,-1.4" fill="none" stroke="#7A4539" stroke-opacity="0.32" stroke-width="1.6"/><path d="M-36.48,0.0 C-15.200000000000001,0.0 14.744,0.0 36.86,0.0" fill="none" stroke="#7A4539" stroke-opacity="0.32" stroke-width="1.6"/><path d="M-36.48,1.4 C-15.200000000000001,6.3 14.744,6.3 36.86,1.4" fill="none" stroke="#7A4539" stroke-opacity="0.32" stroke-width="1.6"/><path d="M-36.48,2.8 C-15.200000000000001,12.6 14.744,12.6 36.86,2.8" fill="none" stroke="#7A4539" stroke-opacity="0.32" stroke-width="1.6"/></g></g>
    <g transform="translate(262 300) rotate(-72) scale(1)" ><g ><path d="M-60,0 C-60,-14.850000000000001 -27,-27 0,-27 C27,-27 60,-14.850000000000001 60,0 C60,14.850000000000001 27,27 0,27 C-27,27 -60,14.850000000000001 -60,0 Z" fill="url(#gMuscle)"/><path d="M-48,-9.45 C-18,-21.6 15,-21.6 45,-10.8" fill="none" stroke="#fff" stroke-opacity="0.22" stroke-width="4.859999999999999" stroke-linecap="round"/><path d="M-57.599999999999994,-3.5 C-24,-15.8 23.28,-15.8 58.199999999999996,-3.5" fill="none" stroke="#7A4539" stroke-opacity="0.32" stroke-width="1.6"/><path d="M-57.599999999999994,-2.1 C-24,-9.5 23.28,-9.5 58.199999999999996,-2.1" fill="none" stroke="#7A4539" stroke-opacity="0.32" stroke-width="1.6"/><path d="M-57.599999999999994,-0.7 C-24,-3.2 23.28,-3.2 58.199999999999996,-0.7" fill="none" stroke="#7A4539" stroke-opacity="0.32" stroke-width="1.6"/><path d="M-57.599999999999994,0.7 C-24,3.2 23.28,3.2 58.199999999999996,0.7" fill="none" stroke="#7A4539" stroke-opacity="0.32" stroke-width="1.6"/><path d="M-57.599999999999994,2.1 C-24,9.5 23.28,9.5 58.199999999999996,2.1" fill="none" stroke="#7A4539" stroke-opacity="0.32" stroke-width="1.6"/><path d="M-57.599999999999994,3.5 C-24,15.8 23.28,15.8 58.199999999999996,3.5" fill="none" stroke="#7A4539" stroke-opacity="0.32" stroke-width="1.6"/></g></g>
    <rect x="312" y="292" width="36" height="28" rx="9" fill="#E0AE9F" opacity="0.55"/><rect x="312" y="292" width="36" height="28" rx="9" fill="none" stroke="#7A4539" stroke-opacity="0.35"/><rect x="308" y="330" width="36" height="28" rx="9" fill="#E0AE9F" opacity="0.55"/><rect x="308" y="330" width="36" height="28" rx="9" fill="none" stroke="#7A4539" stroke-opacity="0.35"/><rect x="300" y="368" width="36" height="28" rx="9" fill="#E0AE9F" opacity="0.55"/><rect x="300" y="368" width="36" height="28" rx="9" fill="none" stroke="#7A4539" stroke-opacity="0.35"/>
    <path d="M292,330 C286,352 280,372 276,392" fill="none" stroke="#7A4539" stroke-opacity="0.3" stroke-width="2"/><path d="M282,348 C276,370 270,390 266,410" fill="none" stroke="#7A4539" stroke-opacity="0.3" stroke-width="2"/><path d="M272,366 C266,388 260,408 256,428" fill="none" stroke="#7A4539" stroke-opacity="0.3" stroke-width="2"/><path d="M262,384 C256,406 250,426 246,446" fill="none" stroke="#7A4539" stroke-opacity="0.3" stroke-width="2"/>
  </g><line x1="300" y1="172" x2="310" y2="150" stroke="#B9776A" stroke-width="26" stroke-linecap="round"/><g filter="url(#shadow)"><circle cx="318" cy="118" r="44" fill="url(#gSkin)"/>
    <path d="M276,110 C276,70 304,60 326,66 C348,70 362,86 358,104 C340,96 318,96 302,106 C292,114 286,124 284,138 C278,132 274,122 276,110 Z" fill="#4A3A32"/>
    <circle cx="268" cy="118" r="20" fill="#4A3A32"/><path d="M356,110 C362,116 364,124 360,130" fill="none" stroke="#CDB9A6" stroke-width="3" stroke-linecap="round"/></g><g filter="url(#shadow)">
    <line x1="228" y1="440" x2="338" y2="570" stroke="#B9776A" stroke-width="54" stroke-linecap="round"/><line x1="338" y1="570" x2="322" y2="712" stroke="#B9776A" stroke-width="38" stroke-linecap="round"/>
    <g transform="translate(289.1070902829529 499.8324620682706) rotate(49.76364169072618) scale(1)" ><g ><path d="M-62.929300010076176,-8.4 L-104.90102001410665,-4.8 L-104.90102001410665,4.8 L-62.929300010076176,8.4 Z" fill="url(#gTendon)"/><path d="M62.929300010076176,-8.4 L104.90102001410665,-4.8 L104.90102001410665,4.8 L62.929300010076176,8.4 Z" fill="url(#gTendon)"/><path d="M-74.92930001007618,0 C-74.92930001007618,-16.5 -33.71818500453428,-30 0,-30 C33.71818500453428,-30 74.92930001007618,-16.5 74.92930001007618,0 C74.92930001007618,16.5 33.71818500453428,30 0,30 C-33.71818500453428,30 -74.92930001007618,16.5 -74.92930001007618,0 Z" fill="url(#gMuscle)"/><path d="M-59.943440008060946,-10.5 C-22.47879000302285,-24 18.732325002519044,-24 56.19697500755713,-12" fill="none" stroke="#fff" stroke-opacity="0.22" stroke-width="5.3999999999999995" stroke-linecap="round"/><path d="M-71.93212800967312,-3.9 C-29.971720004030473,-17.6 29.072568403909557,-17.6 72.68142100977389,-3.9" fill="none" stroke="#7A4539" stroke-opacity="0.32" stroke-width="1.6"/><path d="M-71.93212800967312,-2.3 C-29.971720004030473,-10.5 29.072568403909557,-10.5 72.68142100977389,-2.3" fill="none" stroke="#7A4539" stroke-opacity="0.32" stroke-width="1.6"/><path d="M-71.93212800967312,-0.8 C-29.971720004030473,-3.5 29.072568403909557,-3.5 72.68142100977389,-0.8" fill="none" stroke="#7A4539" stroke-opacity="0.32" stroke-width="1.6"/><path d="M-71.93212800967312,0.8 C-29.971720004030473,3.5 29.072568403909557,3.5 72.68142100977389,0.8" fill="none" stroke="#7A4539" stroke-opacity="0.32" stroke-width="1.6"/><path d="M-71.93212800967312,2.3 C-29.971720004030473,10.5 29.072568403909557,10.5 72.68142100977389,2.3" fill="none" stroke="#7A4539" stroke-opacity="0.32" stroke-width="1.6"/><path d="M-71.93212800967312,3.9 C-29.971720004030473,17.6 29.072568403909557,17.6 72.68142100977389,3.9" fill="none" stroke="#7A4539" stroke-opacity="0.32" stroke-width="1.6"/></g></g><g transform="translate(266.2055017218795 519.2107293122558) rotate(49.76364169072618) scale(1)" ><g ><path d="M-56.11754546370561,-5.6000000000000005 L-95.36456364918786,-3.2 L-95.36456364918786,3.2 L-56.11754546370561,5.6000000000000005 Z" fill="url(#gTendon)"/><path d="M56.11754546370561,-5.6000000000000005 L95.36456364918786,-3.2 L95.36456364918786,3.2 L56.11754546370561,5.6000000000000005 Z" fill="url(#gTendon)"/><path d="M-68.11754546370561,0 C-68.11754546370561,-11 -30.652895458667526,-20 0,-20 C30.652895458667526,-20 68.11754546370561,-11 68.11754546370561,0 C68.11754546370561,11 30.652895458667526,20 0,20 C-30.652895458667526,20 -68.11754546370561,11 -68.11754546370561,0 Z" fill="url(#gMuscle)"/><path d="M-54.494036370964494,-7 C-20.43526363911168,-16 17.029386365926403,-16 51.08815909777921,-8" fill="none" stroke="#fff" stroke-opacity="0.22" stroke-width="3.5999999999999996" stroke-linecap="round"/><path d="M-65.39284364515738,-2.2 C-27.247018185482247,-9.8 26.429607639917776,-9.8 66.07401909979444,-2.2" fill="none" stroke="#7A4539" stroke-opacity="0.32" stroke-width="1.6"/><path d="M-65.39284364515738,-0.7 C-27.247018185482247,-3.3 26.429607639917776,-3.3 66.07401909979444,-0.7" fill="none" stroke="#7A4539" stroke-opacity="0.32" stroke-width="1.6"/><path d="M-65.39284364515738,0.7 C-27.247018185482247,3.3 26.429607639917776,3.3 66.07401909979444,0.7" fill="none" stroke="#7A4539" stroke-opacity="0.32" stroke-width="1.6"/><path d="M-65.39284364515738,2.2 C-27.247018185482247,9.8 26.429607639917776,9.8 66.07401909979444,2.2" fill="none" stroke="#7A4539" stroke-opacity="0.32" stroke-width="1.6"/></g></g>
    <g transform="translate(319.64300309371737 625.7444234758809) rotate(96.42874774882985) scale(1)" ><g ><path d="M-39.4434835523412,-5.880000000000001 L-72.02087697327768,-3.36 L-72.02087697327768,3.36 L-39.4434835523412,5.880000000000001 Z" fill="url(#gTendon)"/><path d="M39.4434835523412,-5.880000000000001 L72.02087697327768,-3.36 L72.02087697327768,3.36 L39.4434835523412,5.880000000000001 Z" fill="url(#gTendon)"/><path d="M-51.4434835523412,0 C-51.4434835523412,-11.55 -23.14956759855354,-21 0,-21 C23.14956759855354,-21 51.4434835523412,-11.55 51.4434835523412,0 C51.4434835523412,11.55 23.14956759855354,21 0,21 C-23.14956759855354,21 -51.4434835523412,11.55 -51.4434835523412,0 Z" fill="url(#gMuscle)"/><path d="M-41.15478684187296,-7.35 C-15.433045065702359,-16.8 12.8608708880853,-16.8 38.5826126642559,-8.4" fill="none" stroke="#fff" stroke-opacity="0.22" stroke-width="3.78" stroke-linecap="round"/><path d="M-49.38574421024755,-2.5 C-20.57739342093648,-11.5 19.960071618308387,-11.5 49.90017904577096,-2.5" fill="none" stroke="#7A4539" stroke-opacity="0.32" stroke-width="1.6"/><path d="M-49.38574421024755,-1.3 C-20.57739342093648,-5.7 19.960071618308387,-5.7 49.90017904577096,-1.3" fill="none" stroke="#7A4539" stroke-opacity="0.32" stroke-width="1.6"/><path d="M-49.38574421024755,0.0 C-20.57739342093648,0.0 19.960071618308387,0.0 49.90017904577096,0.0" fill="none" stroke="#7A4539" stroke-opacity="0.32" stroke-width="1.6"/><path d="M-49.38574421024755,1.3 C-20.57739342093648,5.7 19.960071618308387,5.7 49.90017904577096,1.3" fill="none" stroke="#7A4539" stroke-opacity="0.32" stroke-width="1.6"/><path d="M-49.38574421024755,2.5 C-20.57739342093648,11.5 19.960071618308387,11.5 49.90017904577096,2.5" fill="none" stroke="#7A4539" stroke-opacity="0.32" stroke-width="1.6"/></g></g><g transform="translate(339.93711865332523 642.1196753412197) rotate(96.42874774882985) scale(1)" ><g ><path d="M-45.159426169268,-3.08 L-80.0231966369752,-1.76 L-80.0231966369752,1.76 L-45.159426169268,3.08 Z" fill="url(#gTendon)"/><path d="M45.159426169268,-3.08 L80.0231966369752,-1.76 L80.0231966369752,1.76 L45.159426169268,3.08 Z" fill="url(#gTendon)"/><path d="M-57.159426169268,0 C-57.159426169268,-6.050000000000001 -25.721741776170603,-11 0,-11 C25.721741776170603,-11 57.159426169268,-6.050000000000001 57.159426169268,0 C57.159426169268,6.050000000000001 25.721741776170603,11 0,11 C-25.721741776170603,11 -57.159426169268,6.050000000000001 -57.159426169268,0 Z" fill="url(#gMuscle)"/><path d="M-45.7275409354144,-3.8499999999999996 C-17.1478278507804,-8.8 14.289856542317,-8.8 42.869569626951005,-4.4" fill="none" stroke="#fff" stroke-opacity="0.22" stroke-width="1.98" stroke-linecap="round"/><path d="M-54.87304912249728,-1.0 C-22.8637704677072,-4.5 22.177857353675986,-4.5 55.44464338418996,-1.0" fill="none" stroke="#7A4539" stroke-opacity="0.32" stroke-width="1.6"/><path d="M-54.87304912249728,0.0 C-22.8637704677072,0.0 22.177857353675986,0.0 55.44464338418996,0.0" fill="none" stroke="#7A4539" stroke-opacity="0.32" stroke-width="1.6"/><path d="M-54.87304912249728,1.0 C-22.8637704677072,4.5 22.177857353675986,4.5 55.44464338418996,1.0" fill="none" stroke="#7A4539" stroke-opacity="0.32" stroke-width="1.6"/></g></g>
    <circle cx="338" cy="570" r="17" fill="#EFE9DE" opacity="0.9"/>
    <path d="M306,712 L384,726 L378,742 L300,738 Z" fill="url(#gSkin)"/>
  </g><g filter="url(#shadow)">
    <line x1="286" y1="202" x2="338" y2="302" stroke="#B9776A" stroke-width="34" stroke-linecap="round"/><line x1="338" y1="302" x2="394" y2="226" stroke="#B9776A" stroke-width="28" stroke-linecap="round"/>
    <g transform="translate(317.3233008074076 249.23188358014806) rotate(62.52556837372287) scale(1)" ><g ><path d="M-33.08480897153719,-5.32 L-63.11873256015207,-3.04 L-63.11873256015207,3.04 L-33.08480897153719,5.32 Z" fill="url(#gTendon)"/><path d="M33.08480897153719,-5.32 L63.11873256015207,-3.04 L63.11873256015207,3.04 L33.08480897153719,5.32 Z" fill="url(#gTendon)"/><path d="M-45.08480897153719,0 C-45.08480897153719,-10.450000000000001 -20.288164037191738,-19 0,-19 C20.288164037191738,-19 45.08480897153719,-10.450000000000001 45.08480897153719,0 C45.08480897153719,10.450000000000001 20.288164037191738,19 0,19 C-20.288164037191738,19 -45.08480897153719,10.450000000000001 -45.08480897153719,0 Z" fill="url(#gMuscle)"/><path d="M-36.06784717722976,-6.6499999999999995 C-13.525442691461157,-15.200000000000001 11.271202242884298,-15.200000000000001 33.81360672865289,-7.6000000000000005" fill="none" stroke="#fff" stroke-opacity="0.22" stroke-width="3.42" stroke-linecap="round"/><path d="M-43.281416612675706,-2.1 C-18.03392358861488,-9.3 17.49290588095643,-9.3 43.73226470239108,-2.1" fill="none" stroke="#7A4539" stroke-opacity="0.32" stroke-width="1.6"/><path d="M-43.281416612675706,-0.7 C-18.03392358861488,-3.1 17.49290588095643,-3.1 43.73226470239108,-0.7" fill="none" stroke="#7A4539" stroke-opacity="0.32" stroke-width="1.6"/><path d="M-43.281416612675706,0.7 C-18.03392358861488,3.1 17.49290588095643,3.1 43.73226470239108,0.7" fill="none" stroke="#7A4539" stroke-opacity="0.32" stroke-width="1.6"/><path d="M-43.281416612675706,2.1 C-18.03392358861488,9.3 17.49290588095643,9.3 43.73226470239108,2.1" fill="none" stroke="#7A4539" stroke-opacity="0.32" stroke-width="1.6"/></g></g><g transform="translate(365.6610291211144 271.2031311763196) rotate(-53.61564818416411) scale(1)" ><g ><path d="M-24.81732201016255,-4.2 L-51.54425081422757,-2.4 L-51.54425081422757,2.4 L-24.81732201016255,4.2 Z" fill="url(#gTendon)"/><path d="M24.81732201016255,-4.2 L51.54425081422757,-2.4 L51.54425081422757,2.4 L24.81732201016255,4.2 Z" fill="url(#gTendon)"/><path d="M-36.81732201016255,0 C-36.81732201016255,-8.25 -16.567794904573148,-15 0,-15 C16.567794904573148,-15 36.81732201016255,-8.25 36.81732201016255,0 C36.81732201016255,8.25 16.567794904573148,15 0,15 C-16.567794904573148,15 -36.81732201016255,8.25 -36.81732201016255,0 Z" fill="url(#gMuscle)"/><path d="M-29.45385760813004,-5.25 C-11.045196603048764,-12 9.204330502540637,-12 27.612991507621913,-6" fill="none" stroke="#fff" stroke-opacity="0.22" stroke-width="2.6999999999999997" stroke-linecap="round"/><path d="M-35.34462912975604,-1.6 C-14.72692880406502,-7.4 14.285120939943068,-7.4 35.71280234985767,-1.6" fill="none" stroke="#7A4539" stroke-opacity="0.32" stroke-width="1.6"/><path d="M-35.34462912975604,-0.5 C-14.72692880406502,-2.5 14.285120939943068,-2.5 35.71280234985767,-0.5" fill="none" stroke="#7A4539" stroke-opacity="0.32" stroke-width="1.6"/><path d="M-35.34462912975604,0.5 C-14.72692880406502,2.5 14.285120939943068,2.5 35.71280234985767,0.5" fill="none" stroke="#7A4539" stroke-opacity="0.32" stroke-width="1.6"/><path d="M-35.34462912975604,1.6 C-14.72692880406502,7.4 14.285120939943068,7.4 35.71280234985767,1.6" fill="none" stroke="#7A4539" stroke-opacity="0.32" stroke-width="1.6"/></g></g>
    <circle cx="292" cy="196" r="24" fill="url(#gMuscle)"/>
    <ellipse cx="400" cy="216" rx="13" ry="17" fill="url(#gSkin)" transform="rotate(-30 394 226)"/>
  </g></g></svg>
