<svg xmlns="http://www.w3.org/2000/svg" viewBox="0 0 718 370" width="718" height="370"><defs>
    <linearGradient id="gMuscle" x1="0" y1="0" x2="0" y2="1"><stop offset="0" stop-color="#E0AE9F"/><stop offset="0.5" stop-color="#B9776A"/><stop offset="1" stop-color="#8A4F43"/></linearGradient>
    <linearGradient id="gMuted" x1="0" y1="0" x2="0" y2="1"><stop offset="0" stop-color="#DCC5B9"/><stop offset="0.5" stop-color="#CBAE9F"/><stop offset="1" stop-color="#A98B7D"/></linearGradient>
    <linearGradient id="gTendon" x1="0" y1="0" x2="1" y2="0"><stop offset="0" stop-color="#EFE9DE"/><stop offset="0.5" stop-color="#EFE9DE"/><stop offset="1" stop-color="#CFC5B4"/></linearGradient>
    <linearGradient id="gVessel" x1="0" y1="0" x2="0" y2="1"><stop offset="0" stop-color="#DEA69E"/><stop offset="0.5" stop-color="#C4807A"/><stop offset="1" stop-color="#95574F"/></linearGradient>
    <linearGradient id="gSkin" x1="0" y1="0" x2="0" y2="1"><stop offset="0" stop-color="#F3EAE0"/><stop offset="0.5" stop-color="#EBDFD2"/><stop offset="1" stop-color="#CDB9A6"/></linearGradient>
    <radialGradient id="gFat" cx="0.35" cy="0.3" r="0.8"><stop offset="0" stop-color="#F7EEDA"/><stop offset="0.55" stop-color="#EBDCBB"/><stop offset="1" stop-color="#CDB48A"/></radialGradient>
    <radialGradient id="gLiver" cx="0.3" cy="0.25" r="0.8"><stop offset="0" stop-color="#BC8575"/><stop offset="0.55" stop-color="#9B6557"/><stop offset="1" stop-color="#6E4036"/></radialGradient>
    <radialGradient id="gBrain" cx="0.35" cy="0.25" r="0.8"><stop offset="0" stop-color="#EDD9D0"/><stop offset="0.55" stop-color="#D9BBB0"/><stop offset="1" stop-color="#B38E85"/></radialGradient>
    <radialGradient id="gLumen" cx="0.5" cy="0.5" r="0.8"><stop offset="0" stop-color="#E9C8C0"/><stop offset="0.55" stop-color="#95574F"/><stop offset="1" stop-color="#95574F"/></radialGradient>
    <radialGradient id="gRbc" cx="0.4" cy="0.4" r="0.8"><stop offset="0" stop-color="#D27B72"/><stop offset="0.55" stop-color="#B2534B"/><stop offset="1" stop-color="#B2534B"/></radialGradient>
    <radialGradient id="gMito" cx="0.35" cy="0.3" r="0.8"><stop offset="0" stop-color="#E8CFBF"/><stop offset="0.55" stop-color="#CDA893"/><stop offset="1" stop-color="#8E5A4C"/></radialGradient>
    <radialGradient id="gMol1" cx="0.35" cy="0.3" r="0.8"><stop offset="0" stop-color="#F4F1EB"/><stop offset="0.55" stop-color="#A9B3BC"/><stop offset="1" stop-color="#7F8B95"/></radialGradient>
    <radialGradient id="gMol2" cx="0.35" cy="0.3" r="0.8"><stop offset="0" stop-color="#F4F1EB"/><stop offset="0.55" stop-color="#ABA597"/><stop offset="1" stop-color="#827C70"/></radialGradient>
    <radialGradient id="gMol3" cx="0.35" cy="0.3" r="0.8"><stop offset="0" stop-color="#F4F1EB"/><stop offset="0.55" stop-color="#CFBEA8"/><stop offset="1" stop-color="#A28F77"/></radialGradient>
    <radialGradient id="gSat" cx="0.35" cy="0.3" r="0.8"><stop offset="0" stop-color="#D8CFE0"/><stop offset="0.55" stop-color="#9C8FA8"/><stop offset="1" stop-color="#6F6380"/></radialGradient>
    <filter id="shadow" x="-20%" y="-20%" width="140%" height="160%"><feDropShadow dx="0" dy="10" stdDeviation="10" flood-color="#362D28" flood-opacity="0.14"/></filter>
    <filter id="soft" x="-20%" y="-20%" width="140%" height="160%"><feDropShadow dx="0" dy="4" stdDeviation="4" flood-color="#362D28" flood-opacity="0.10"/></filter>
  </defs>
    <g ><circle cx="304.5" cy="159.0" r="7.2" fill="#A9B3BC"/><circle cx="302.4" cy="156.8" r="2.0" fill="#fff" opacity="0.55"/><circle cx="321.6" cy="142.7" r="5.5" fill="#A9B3BC"/><circle cx="320.0" cy="141.1" r="1.5" fill="#fff" opacity="0.55"/><circle cx="346.7" cy="118.8" r="5.8" fill="#A9B3BC"/><circle cx="344.9" cy="117.1" r="1.6" fill="#fff" opacity="0.55"/><circle cx="387.9" cy="115.5" r="4.6" fill="#A9B3BC"/><circle cx="386.6" cy="114.1" r="1.3" fill="#fff" opacity="0.55"/><circle cx="413.8" cy="101.2" r="4.4" fill="#A9B3BC"/><circle cx="412.5" cy="99.9" r="1.2" fill="#fff" opacity="0.55"/><circle cx="432.6" cy="84.2" r="7.6" fill="#A9B3BC"/><circle cx="430.4" cy="81.9" r="2.1" fill="#fff" opacity="0.55"/><circle cx="472.7" cy="72.8" r="4.9" fill="#A9B3BC"/><circle cx="471.3" cy="71.3" r="1.4" fill="#fff" opacity="0.55"/><circle cx="482.4" cy="75.4" r="4.6" fill="#A9B3BC"/><circle cx="481.0" cy="74.0" r="1.3" fill="#fff" opacity="0.55"/><circle cx="510.0" cy="80.3" r="9.3" fill="#A9B3BC"/><circle cx="507.2" cy="77.5" r="2.6" fill="#fff" opacity="0.55"/><circle cx="543.9" cy="75.9" r="9.5" fill="#A9B3BC"/><circle cx="541.0" cy="73.0" r="2.7" fill="#fff" opacity="0.55"/></g>
    <g ><circle cx="311.6" cy="198.1" r="8.5" fill="#ABA597"/><circle cx="309.0" cy="195.6" r="2.4" fill="#fff" opacity="0.55"/><circle cx="331.3" cy="202.5" r="8.7" fill="#ABA597"/><circle cx="328.7" cy="199.9" r="2.4" fill="#fff" opacity="0.55"/><circle cx="374.9" cy="186.9" r="5.7" fill="#ABA597"/><circle cx="373.2" cy="185.1" r="1.6" fill="#fff" opacity="0.55"/><circle cx="390.7" cy="199.7" r="8.0" fill="#ABA597"/><circle cx="388.3" cy="197.2" r="2.3" fill="#fff" opacity="0.55"/><circle cx="427.0" cy="189.2" r="6.2" fill="#ABA597"/><circle cx="425.2" cy="187.3" r="1.7" fill="#fff" opacity="0.55"/><circle cx="452.1" cy="183.8" r="8.7" fill="#ABA597"/><circle cx="449.5" cy="181.2" r="2.4" fill="#fff" opacity="0.55"/><circle cx="474.5" cy="191.9" r="6.0" fill="#ABA597"/><circle cx="472.7" cy="190.1" r="1.7" fill="#fff" opacity="0.55"/><circle cx="502.3" cy="181.6" r="6.6" fill="#ABA597"/><circle cx="500.3" cy="179.7" r="1.8" fill="#fff" opacity="0.55"/><circle cx="523.9" cy="181.5" r="7.0" fill="#ABA597"/><circle cx="521.8" cy="179.4" r="2.0" fill="#fff" opacity="0.55"/></g>
    <g ><circle cx="298.0" cy="238.4" r="9.8" fill="#CFBEA8"/><circle cx="295.1" cy="235.4" r="2.7" fill="#fff" opacity="0.55"/><circle cx="319.5" cy="245.2" r="5.9" fill="#CFBEA8"/><circle cx="317.7" cy="243.5" r="1.6" fill="#fff" opacity="0.55"/><circle cx="361.1" cy="259.7" r="5.6" fill="#CFBEA8"/><circle cx="359.5" cy="258.0" r="1.6" fill="#fff" opacity="0.55"/><circle cx="391.3" cy="290.1" r="5.5" fill="#CFBEA8"/><circle cx="389.6" cy="288.4" r="1.5" fill="#fff" opacity="0.55"/><circle cx="418.3" cy="284.7" r="8.0" fill="#CFBEA8"/><circle cx="415.8" cy="282.3" r="2.2" fill="#fff" opacity="0.55"/><circle cx="430.4" cy="292.0" r="9.7" fill="#CFBEA8"/><circle cx="427.5" cy="289.1" r="2.7" fill="#fff" opacity="0.55"/><circle cx="456.0" cy="300.2" r="7.1" fill="#CFBEA8"/><circle cx="453.9" cy="298.0" r="2.0" fill="#fff" opacity="0.55"/><circle cx="483.4" cy="317.6" r="8.6" fill="#CFBEA8"/><circle cx="480.8" cy="315.0" r="2.4" fill="#fff" opacity="0.55"/><circle cx="521.0" cy="312.6" r="4.7" fill="#CFBEA8"/><circle cx="519.6" cy="311.2" r="1.3" fill="#fff" opacity="0.55"/><circle cx="537.0" cy="313.6" r="4.0" fill="#CFBEA8"/><circle cx="535.8" cy="312.4" r="1.1" fill="#fff" opacity="0.55"/></g>
    <g transform="translate(620 70) rotate(0) scale(1)" ><g  transform="scale(0.5)"><circle cx="8" cy="-48" r="24" fill="#EBDCBB" stroke="#CDB48A" stroke-opacity="0.7" stroke-width="1.5"/><circle cx="16.4" cy="-40.8" r="3.3600000000000003" fill="#CDB48A" opacity="0.6"/><circle cx="-40" cy="-26" r="28" fill="#EBDCBB" stroke="#CDB48A" stroke-opacity="0.7" stroke-width="1.5"/><circle cx="-30.200000000000003" cy="-17.6" r="3.9200000000000004" fill="#CDB48A" opacity="0.6"/><circle cx="48" cy="-18" r="30" fill="#EBDCBB" stroke="#CDB48A" stroke-opacity="0.7" stroke-width="1.5"/><circle cx="58.5" cy="-9" r="4.2" fill="#CDB48A" opacity="0.6"/><circle cx="-58" cy="6" r="24" fill="#EBDCBB" stroke="#CDB48A" stroke-opacity="0.7" stroke-width="1.5"/><circle cx="-49.6" cy="13.2" r="3.3600000000000003" fill="#CDB48A" opacity="0.6"/><circle cx="62" cy="22" r="24" fill="#EBDCBB" stroke="#CDB48A" stroke-opacity="0.7" stroke-width="1.5"/><circle cx="70.4" cy="29.2" r="3.3600000000000003" fill="#CDB48A" opacity="0.6"/><circle cx="0" cy="0" r="34" fill="#EBDCBB" stroke="#CDB48A" stroke-opacity="0.7" stroke-width="1.5"/><circle cx="11.899999999999999" cy="10.2" r="4.760000000000001" fill="#CDB48A" opacity="0.6"/><circle cx="-28" cy="34" r="26" fill="#EBDCBB" stroke="#CDB48A" stroke-opacity="0.7" stroke-width="1.5"/><circle cx="-18.9" cy="41.8" r="3.6400000000000006" fill="#CDB48A" opacity="0.6"/><circle cx="30" cy="34" r="30" fill="#EBDCBB" stroke="#CDB48A" stroke-opacity="0.7" stroke-width="1.5"/><circle cx="40.5" cy="43" r="4.2" fill="#CDB48A" opacity="0.6"/><circle cx="-12" cy="62" r="22" fill="#EBDCBB" stroke="#CDB48A" stroke-opacity="0.7" stroke-width="1.5"/><circle cx="-4.300000000000001" cy="68.6" r="3.08" fill="#CDB48A" opacity="0.6"/><circle cx="44" cy="52" r="20" fill="#EBDCBB" stroke="#CDB48A" stroke-opacity="0.7" stroke-width="1.5"/><circle cx="51" cy="58" r="2.8000000000000003" fill="#CDB48A" opacity="0.6"/></g></g>
    <g transform="translate(540 142) rotate(0) scale(0.62)" ><g ><path d="M10,60 C10,25 50,10 95,12 C150,14 210,30 212,70 C214,100 180,122 140,126 C100,130 60,135 35,115 C15,100 8,80 10,60 Z" fill="#9B6557" stroke="#6E4036" stroke-opacity="0.6" stroke-width="1.5"/>
    <path d="M118,16 C124,60 118,96 104,126" fill="none" stroke="#6E4036" stroke-opacity="0.5" stroke-width="3"/>
    <ellipse cx="60" cy="52" rx="34" ry="14" fill="#fff" opacity="0.18" transform="rotate(-12 60 52)"/>
    <ellipse cx="128" cy="116" rx="24" ry="11" fill="#B7A676"/></g></g>
    <g transform="translate(630 322) rotate(-8) scale(1)" ><g >
    <path d="M-85,-27 L85,-27 L85,27 L-85,27 Z" fill="#C4807A" stroke="#95574F" stroke-opacity="0.6" stroke-width="1.5"/>
    <ellipse cx="-85" cy="0" rx="8.64" ry="27" fill="#C4807A"/>
    <path d="M-85,-14.850000000000001 L85,-14.850000000000001 L85,14.850000000000001 L-85,14.850000000000001 Z" fill="#E9C8C0" opacity="0.9"/>
    <g transform="translate(-51.8 4.5)"><ellipse rx="8.1" ry="5.832" fill="#B2534B"/><ellipse rx="3.645" ry="2.4299999999999997" fill="#B2534B" opacity="0.8"/></g><g transform="translate(3.2 -0.8)"><ellipse rx="8.1" ry="5.832" fill="#B2534B"/><ellipse rx="3.645" ry="2.4299999999999997" fill="#B2534B" opacity="0.8"/></g><g transform="translate(-28.7 17.0)"><ellipse rx="8.1" ry="5.832" fill="#B2534B"/><ellipse rx="3.645" ry="2.4299999999999997" fill="#B2534B" opacity="0.8"/></g><g transform="translate(31.8 -6.4)"><ellipse rx="8.1" ry="5.832" fill="#B2534B"/><ellipse rx="3.645" ry="2.4299999999999997" fill="#B2534B" opacity="0.8"/></g>
    <ellipse cx="85" cy="0" rx="8.64" ry="27" fill="#DEA69E"/><ellipse cx="85" cy="0" rx="6.7392" ry="18.360000000000003" fill="#95574F"/><ellipse cx="85" cy="0" rx="5.184" ry="13.5" fill="#E9C8C0" opacity="0.85"/>
    <path d="M-76.5,-21.060000000000002 L76.5,-21.060000000000002" stroke="#fff" stroke-opacity="0.3" stroke-width="4.32" stroke-linecap="round"/></g></g>
    <g transform="translate(160 200) rotate(-22) scale(1)" ><g ><path d="M-108,-12.600000000000001 L-168,-7.2 L-168,7.2 L-108,12.600000000000001 Z" fill="#EFE9DE"/><path d="M108,-12.600000000000001 L168,-7.2 L168,7.2 L108,12.600000000000001 Z" fill="#EFE9DE"/><path d="M-120,0 C-120,-24.750000000000004 -54,-45 0,-45 C54,-45 120,-24.750000000000004 120,0 C120,24.750000000000004 54,45 0,45 C-54,45 -120,24.750000000000004 -120,0 Z" fill="#B9776A" stroke="#8A4F43" stroke-opacity="0.5" stroke-width="1.5"/><path d="M-96,-15.749999999999998 C-36,-36 30,-36 90,-18" fill="none" stroke="#fff" stroke-opacity="0.22" stroke-width="8.1" stroke-linecap="round"/><path d="M-115.19999999999999,-6.5 C-48,-29.5 46.56,-29.5 116.39999999999999,-6.5" fill="none" stroke="#7A4539" stroke-opacity="0.32" stroke-width="1.6"/><path d="M-115.19999999999999,-4.9 C-48,-22.1 46.56,-22.1 116.39999999999999,-4.9" fill="none" stroke="#7A4539" stroke-opacity="0.32" stroke-width="1.6"/><path d="M-115.19999999999999,-3.2 C-48,-14.8 46.56,-14.8 116.39999999999999,-3.2" fill="none" stroke="#7A4539" stroke-opacity="0.32" stroke-width="1.6"/><path d="M-115.19999999999999,-1.6 C-48,-7.4 46.56,-7.4 116.39999999999999,-1.6" fill="none" stroke="#7A4539" stroke-opacity="0.32" stroke-width="1.6"/><path d="M-115.19999999999999,0.0 C-48,0.0 46.56,0.0 116.39999999999999,0.0" fill="none" stroke="#7A4539" stroke-opacity="0.32" stroke-width="1.6"/><path d="M-115.19999999999999,1.6 C-48,7.4 46.56,7.4 116.39999999999999,1.6" fill="none" stroke="#7A4539" stroke-opacity="0.32" stroke-width="1.6"/><path d="M-115.19999999999999,3.2 C-48,14.8 46.56,14.8 116.39999999999999,3.2" fill="none" stroke="#7A4539" stroke-opacity="0.32" stroke-width="1.6"/><path d="M-115.19999999999999,4.9 C-48,22.1 46.56,22.1 116.39999999999999,4.9" fill="none" stroke="#7A4539" stroke-opacity="0.32" stroke-width="1.6"/><path d="M-115.19999999999999,6.5 C-48,29.5 46.56,29.5 116.39999999999999,6.5" fill="none" stroke="#7A4539" stroke-opacity="0.32" stroke-width="1.6"/></g></g></svg>
