<svg xmlns="http://www.w3.org/2000/svg" viewBox="0 0 888 380" width="888" height="380"><defs>
    <linearGradient id="gMuscle" x1="0" y1="0" x2="0" y2="1"><stop offset="0" stop-color="#E0AE9F"/><stop offset="0.5" stop-color="#B9776A"/><stop offset="1" stop-color="#8A4F43"/></linearGradient>
    <linearGradient id="gMuted" x1="0" y1="0" x2="0" y2="1"><stop offset="0" stop-color="#DCC5B9"/><stop offset="0.5" stop-color="#CBAE9F"/><stop offset="1" stop-color="#A98B7D"/></linearGradient>
    <linearGradient id="gTendon" x1="0" y1="0" x2="1" y2="0"><stop offset="0" stop-color="#EFE9DE"/><stop offset="0.5" stop-color="#EFE9DE"/><stop offset="1" stop-color="#CFC5B4"/></linearGradient>
    <linearGradient id="gVessel" x1="0" y1="0" x2="0" y2="1"><stop offset="0" stop-color="#DEA69E"/><stop offset="0.5" stop-color="#C4807A"/><stop offset="1" stop-color="#95574F"/></linearGradient>
    <linearGradient id="gSkin" x1="0" y1="0" x2="0" y2="1"><stop offset="0" stop-color="#F3EAE0"/><stop offset="0.5" stop-color="#EBDFD2"/><stop offset="1" stop-color="#CDB9A6"/></linearGradient>
    <radialGradient id="gFat" cx="0.35" cy="0.3" r="0.8"><stop offset="0" stop-color="#F7EEDA"/><stop offset="0.55" stop-color="#EBDCBB"/><stop offset="1" stop-color="#CDB48A"/></radialGradient>
    <radialGradient id="gLiver" cx="0.3" cy="0.25" r="0.8"><stop offset="0" stop-color="#BC8575"/><stop offset="0.55" stop-color="#9B6557"/><stop offset="1" stop-color="#6E4036"/></radialGradient>
    <radialGradient id="gBrain" cx="0.35" cy="0.25" r="0.8"><stop offset="0" stop-color="#EDD9D0"/><stop offset="0.55" stop-color="#D9BBB0"/><stop offset="1" stop-color="#B38E85"/></radialGradient>
    <radialGradient id="gLumen" cx="0.5" cy="0.5" r="0.8"><stop offset="0" stop-color="#E9C8C0"/><stop offset="0.55" stop-color="#95574F"/><stop offset="1" stop-color="#95574F"/></radialGradient>
    <radialGradient id="gRbc" cx="0.4" cy="0.4" r="0.8"><stop offset="0" stop-color="#D27B72"/><stop offset="0.55" stop-color="#B2534B"/><stop offset="1" stop-color="#B2534B"/></radialGradient>
    <radialGradient id="gMito" cx="0.35" cy="0.3" r="0.8"><stop offset="0" stop-color="#E8CFBF"/><stop offset="0.55" stop-color="#CDA893"/><stop offset="1" stop-color="#8E5A4C"/></radialGradient>
    <radialGradient id="gMol1" cx="0.35" cy="0.3" r="0.8"><stop offset="0" stop-color="#F4F1EB"/><stop offset="0.55" stop-color="#A9B3BC"/><stop offset="1" stop-color="#7F8B95"/></radialGradient>
    <radialGradient id="gMol2" cx="0.35" cy="0.3" r="0.8"><stop offset="0" stop-color="#F4F1EB"/><stop offset="0.55" stop-color="#ABA597"/><stop offset="1" stop-color="#827C70"/></radialGradient>
    <radialGradient id="gMol3" cx="0.35" cy="0.3" r="0.8"><stop offset="0" stop-color="#F4F1EB"/><stop offset="0.55" stop-color="#CFBEA8"/><stop offset="1" stop-color="#A28F77"/></radialGradient>
    <radialGradient id="gSat" cx="0.35" cy="0.3" r="0.8"><stop offset="0" stop-color="#D8CFE0"/><stop offset="0.55" stop-color="#9C8FA8"/><stop offset="1" stop-color="#6F6380"/></radialGradient>
    <filter id="shadow" x="-20%" y="-20%" width="140%" height="160%"><feDropShadow dx="0" dy="10" stdDeviation="10" flood-color="#362D28" flood-opacity="0.14"/></filter>
    <filter id="soft" x="-20%" y="-20%" width="140%" height="160%"><feDropShadow dx="0" dy="4" stdDeviation="4" flood-color="#362D28" flood-opacity="0.10"/></filter>
  </defs>
    <g ><circle cx="345.4" cy="79.6" r="7.2" fill="#A9B3BC"/><circle cx="343.2" cy="77.5" r="2.0" fill="#fff" opacity="0.55"/><circle cx="368.8" cy="77.9" r="5.5" fill="#A9B3BC"/><circle cx="367.1" cy="76.2" r="1.5" fill="#fff" opacity="0.55"/><circle cx="396.8" cy="70.9" r="5.8" fill="#A9B3BC"/><circle cx="395.1" cy="69.1" r="1.6" fill="#fff" opacity="0.55"/><circle cx="434.5" cy="75.7" r="4.6" fill="#A9B3BC"/><circle cx="433.2" cy="74.4" r="1.3" fill="#fff" opacity="0.55"/><circle cx="462.9" cy="73.4" r="4.4" fill="#A9B3BC"/><circle cx="461.6" cy="72.1" r="1.2" fill="#fff" opacity="0.55"/><circle cx="486.9" cy="68.8" r="7.6" fill="#A9B3BC"/><circle cx="484.6" cy="66.5" r="2.1" fill="#fff" opacity="0.55"/><circle cx="523.5" cy="67.0" r="4.9" fill="#A9B3BC"/><circle cx="522.0" cy="65.6" r="1.4" fill="#fff" opacity="0.55"/><circle cx="541.7" cy="73.1" r="4.6" fill="#A9B3BC"/><circle cx="540.4" cy="71.7" r="1.3" fill="#fff" opacity="0.55"/><circle cx="570.6" cy="79.9" r="9.3" fill="#A9B3BC"/><circle cx="567.8" cy="77.1" r="2.6" fill="#fff" opacity="0.55"/></g>
    <g ><circle cx="343.4" cy="193.0" r="8.5" fill="#ABA597"/><circle cx="340.8" cy="190.5" r="2.4" fill="#fff" opacity="0.55"/><circle cx="368.1" cy="197.6" r="8.7" fill="#ABA597"/><circle cx="365.5" cy="195.0" r="2.4" fill="#fff" opacity="0.55"/><circle cx="407.2" cy="189.8" r="5.7" fill="#ABA597"/><circle cx="405.5" cy="188.0" r="1.6" fill="#fff" opacity="0.55"/><circle cx="429.5" cy="198.5" r="8.0" fill="#ABA597"/><circle cx="427.1" cy="196.1" r="2.3" fill="#fff" opacity="0.55"/><circle cx="464.2" cy="192.8" r="6.2" fill="#ABA597"/><circle cx="462.3" cy="190.9" r="1.7" fill="#fff" opacity="0.55"/><circle cx="492.2" cy="189.6" r="8.7" fill="#ABA597"/><circle cx="489.6" cy="187.0" r="2.4" fill="#fff" opacity="0.55"/><circle cx="518.5" cy="194.1" r="6.0" fill="#ABA597"/><circle cx="516.7" cy="192.3" r="1.7" fill="#fff" opacity="0.55"/><circle cx="548.0" cy="187.1" r="6.6" fill="#ABA597"/><circle cx="546.1" cy="185.1" r="1.8" fill="#fff" opacity="0.55"/><circle cx="573.9" cy="185.7" r="7.0" fill="#ABA597"/><circle cx="571.8" cy="183.6" r="2.0" fill="#fff" opacity="0.55"/></g>
    <g ><circle cx="341.4" cy="302.7" r="9.8" fill="#CFBEA8"/><circle cx="338.5" cy="299.8" r="2.7" fill="#fff" opacity="0.55"/><circle cx="367.5" cy="295.4" r="5.9" fill="#CFBEA8"/><circle cx="365.7" cy="293.6" r="1.6" fill="#fff" opacity="0.55"/><circle cx="405.5" cy="294.2" r="5.6" fill="#CFBEA8"/><circle cx="403.9" cy="292.5" r="1.6" fill="#fff" opacity="0.55"/><circle cx="436.5" cy="304.1" r="5.5" fill="#CFBEA8"/><circle cx="434.9" cy="302.5" r="1.5" fill="#fff" opacity="0.55"/><circle cx="465.5" cy="294.2" r="8.0" fill="#CFBEA8"/><circle cx="463.1" cy="291.8" r="2.2" fill="#fff" opacity="0.55"/><circle cx="485.5" cy="293.4" r="9.7" fill="#CFBEA8"/><circle cx="482.6" cy="290.4" r="2.7" fill="#fff" opacity="0.55"/><circle cx="513.4" cy="294.7" r="7.1" fill="#CFBEA8"/><circle cx="511.3" cy="292.6" r="2.0" fill="#fff" opacity="0.55"/><circle cx="542.3" cy="303.2" r="8.6" fill="#CFBEA8"/><circle cx="539.8" cy="300.6" r="2.4" fill="#fff" opacity="0.55"/><circle cx="577.2" cy="299.8" r="4.7" fill="#CFBEA8"/><circle cx="575.8" cy="298.3" r="1.3" fill="#fff" opacity="0.55"/></g>
    <g transform="translate(650 76) rotate(0) scale(1)" ><g  transform="scale(0.42)"><circle cx="8" cy="-48" r="24" fill="#EBDCBB" stroke="#CDB48A" stroke-opacity="0.7" stroke-width="1.5"/><circle cx="16.4" cy="-40.8" r="3.3600000000000003" fill="#CDB48A" opacity="0.6"/><circle cx="-40" cy="-26" r="28" fill="#EBDCBB" stroke="#CDB48A" stroke-opacity="0.7" stroke-width="1.5"/><circle cx="-30.200000000000003" cy="-17.6" r="3.9200000000000004" fill="#CDB48A" opacity="0.6"/><circle cx="48" cy="-18" r="30" fill="#EBDCBB" stroke="#CDB48A" stroke-opacity="0.7" stroke-width="1.5"/><circle cx="58.5" cy="-9" r="4.2" fill="#CDB48A" opacity="0.6"/><circle cx="-58" cy="6" r="24" fill="#EBDCBB" stroke="#CDB48A" stroke-opacity="0.7" stroke-width="1.5"/><circle cx="-49.6" cy="13.2" r="3.3600000000000003" fill="#CDB48A" opacity="0.6"/><circle cx="62" cy="22" r="24" fill="#EBDCBB" stroke="#CDB48A" stroke-opacity="0.7" stroke-width="1.5"/><circle cx="70.4" cy="29.2" r="3.3600000000000003" fill="#CDB48A" opacity="0.6"/><circle cx="0" cy="0" r="34" fill="#EBDCBB" stroke="#CDB48A" stroke-opacity="0.7" stroke-width="1.5"/><circle cx="11.899999999999999" cy="10.2" r="4.760000000000001" fill="#CDB48A" opacity="0.6"/><circle cx="-28" cy="34" r="26" fill="#EBDCBB" stroke="#CDB48A" stroke-opacity="0.7" stroke-width="1.5"/><circle cx="-18.9" cy="41.8" r="3.6400000000000006" fill="#CDB48A" opacity="0.6"/><circle cx="30" cy="34" r="30" fill="#EBDCBB" stroke="#CDB48A" stroke-opacity="0.7" stroke-width="1.5"/><circle cx="40.5" cy="43" r="4.2" fill="#CDB48A" opacity="0.6"/><circle cx="-12" cy="62" r="22" fill="#EBDCBB" stroke="#CDB48A" stroke-opacity="0.7" stroke-width="1.5"/><circle cx="-4.300000000000001" cy="68.6" r="3.08" fill="#CDB48A" opacity="0.6"/><circle cx="44" cy="52" r="20" fill="#EBDCBB" stroke="#CDB48A" stroke-opacity="0.7" stroke-width="1.5"/><circle cx="51" cy="58" r="2.8000000000000003" fill="#CDB48A" opacity="0.6"/></g></g>
    <g transform="translate(600 155) rotate(0) scale(0.48)" ><g ><path d="M10,60 C10,25 50,10 95,12 C150,14 210,30 212,70 C214,100 180,122 140,126 C100,130 60,135 35,115 C15,100 8,80 10,60 Z" fill="#9B6557" stroke="#6E4036" stroke-opacity="0.6" stroke-width="1.5"/>
    <path d="M118,16 C124,60 118,96 104,126" fill="none" stroke="#6E4036" stroke-opacity="0.5" stroke-width="3"/>
    <ellipse cx="60" cy="52" rx="34" ry="14" fill="#fff" opacity="0.18" transform="rotate(-12 60 52)"/>
    <ellipse cx="128" cy="116" rx="24" ry="11" fill="#B7A676"/></g></g>
    <g transform="translate(652 304) rotate(-6) scale(1)" ><g >
    <path d="M-65,-21 L65,-21 L65,21 L-65,21 Z" fill="#C4807A" stroke="#95574F" stroke-opacity="0.6" stroke-width="1.5"/>
    <ellipse cx="-65" cy="0" rx="6.72" ry="21" fill="#C4807A"/>
    <path d="M-65,-11.55 L65,-11.55 L65,11.55 L-65,11.55 Z" fill="#E9C8C0" opacity="0.9"/>
    <g transform="translate(-36.6 3.5)"><ellipse rx="6.3" ry="4.536" fill="#B2534B"/><ellipse rx="2.835" ry="1.89" fill="#B2534B" opacity="0.8"/></g><g transform="translate(-1.6 -0.6)"><ellipse rx="6.3" ry="4.536" fill="#B2534B"/><ellipse rx="2.835" ry="1.89" fill="#B2534B" opacity="0.8"/></g><g transform="translate(-21.9 13.2)"><ellipse rx="6.3" ry="4.536" fill="#B2534B"/><ellipse rx="2.835" ry="1.89" fill="#B2534B" opacity="0.8"/></g>
    <ellipse cx="65" cy="0" rx="6.72" ry="21" fill="#DEA69E"/><ellipse cx="65" cy="0" rx="5.2416" ry="14.280000000000001" fill="#95574F"/><ellipse cx="65" cy="0" rx="4.032" ry="10.5" fill="#E9C8C0" opacity="0.85"/>
    <path d="M-58.5,-16.38 L58.5,-16.38" stroke="#fff" stroke-opacity="0.3" stroke-width="3.36" stroke-linecap="round"/></g></g>
    <g transform="translate(90 190) rotate(-90) scale(1)" ><g ><path d="M-138,-12.32 L-210,-7.04 L-210,7.04 L-138,12.32 Z" fill="#EFE9DE"/><path d="M138,-12.32 L210,-7.04 L210,7.04 L138,12.32 Z" fill="#EFE9DE"/><path d="M-150,0 C-150,-24.200000000000003 -67.5,-44 0,-44 C67.5,-44 150,-24.200000000000003 150,0 C150,24.200000000000003 67.5,44 0,44 C-67.5,44 -150,24.200000000000003 -150,0 Z" fill="#B9776A" stroke="#8A4F43" stroke-opacity="0.5" stroke-width="1.5"/><path d="M-120,-15.399999999999999 C-45,-35.2 37.5,-35.2 112.5,-17.6" fill="none" stroke="#fff" stroke-opacity="0.22" stroke-width="7.92" stroke-linecap="round"/><path d="M-144,-6.4 C-60,-28.9 58.2,-28.9 145.5,-6.4" fill="none" stroke="#7A4539" stroke-opacity="0.32" stroke-width="1.6"/><path d="M-144,-4.8 C-60,-21.6 58.2,-21.6 145.5,-4.8" fill="none" stroke="#7A4539" stroke-opacity="0.32" stroke-width="1.6"/><path d="M-144,-3.2 C-60,-14.4 58.2,-14.4 145.5,-3.2" fill="none" stroke="#7A4539" stroke-opacity="0.32" stroke-width="1.6"/><path d="M-144,-1.6 C-60,-7.2 58.2,-7.2 145.5,-1.6" fill="none" stroke="#7A4539" stroke-opacity="0.32" stroke-width="1.6"/><path d="M-144,0.0 C-60,0.0 58.2,0.0 145.5,0.0" fill="none" stroke="#7A4539" stroke-opacity="0.32" stroke-width="1.6"/><path d="M-144,1.6 C-60,7.2 58.2,7.2 145.5,1.6" fill="none" stroke="#7A4539" stroke-opacity="0.32" stroke-width="1.6"/><path d="M-144,3.2 C-60,14.4 58.2,14.4 145.5,3.2" fill="none" stroke="#7A4539" stroke-opacity="0.32" stroke-width="1.6"/><path d="M-144,4.8 C-60,21.6 58.2,21.6 145.5,4.8" fill="none" stroke="#7A4539" stroke-opacity="0.32" stroke-width="1.6"/><path d="M-144,6.4 C-60,28.9 58.2,28.9 145.5,6.4" fill="none" stroke="#7A4539" stroke-opacity="0.32" stroke-width="1.6"/></g></g></svg>
