<svg xmlns="http://www.w3.org/2000/svg" viewBox="0 0 520 900" width="520" height="900"><defs>
    <linearGradient id="gMuscle" x1="0" y1="0" x2="0" y2="1"><stop offset="0" stop-color="#E0AE9F"/><stop offset="0.5" stop-color="#B9776A"/><stop offset="1" stop-color="#8A4F43"/></linearGradient>
    <linearGradient id="gMuted" x1="0" y1="0" x2="0" y2="1"><stop offset="0" stop-color="#DCC5B9"/><stop offset="0.5" stop-color="#CBAE9F"/><stop offset="1" stop-color="#A98B7D"/></linearGradient>
    <linearGradient id="gTendon" x1="0" y1="0" x2="1" y2="0"><stop offset="0" stop-color="#EFE9DE"/><stop offset="0.5" stop-color="#EFE9DE"/><stop offset="1" stop-color="#CFC5B4"/></linearGradient>
    <linearGradient id="gVessel" x1="0" y1="0" x2="0" y2="1"><stop offset="0" stop-color="#DEA69E"/><stop offset="0.5" stop-color="#C4807A"/><stop offset="1" stop-color="#95574F"/></linearGradient>
    <linearGradient id="gSkin" x1="0" y1="0" x2="0" y2="1"><stop offset="0" stop-color="#F3EAE0"/><stop offset="0.5" stop-color="#EBDFD2"/><stop offset="1" stop-color="#CDB9A6"/></linearGradient>
    <radialGradient id="gFat" cx="0.35" cy="0.3" r="0.8"><stop offset="0" stop-color="#F7EEDA"/><stop offset="0.55" stop-color="#EBDCBB"/><stop offset="1" stop-color="#CDB48A"/></radialGradient>
    <radialGradient id="gLiver" cx="0.3" cy="0.25" r="0.8"><stop offset="0" stop-color="#BC8575"/><stop offset="0.55" stop-color="#9B6557"/><stop offset="1" stop-color="#6E4036"/></radialGradient>
    <radialGradient id="gBrain" cx="0.35" cy="0.25" r="0.8"><stop offset="0" stop-color="#EDD9D0"/><stop offset="0.55" stop-color="#D9BBB0"/><stop offset="1" stop-color="#B38E85"/></radialGradient>
    <radialGradient id="gLumen" cx="0.5" cy="0.5" r="0.8"><stop offset="0" stop-color="#E9C8C0"/><stop offset="0.55" stop-color="#95574F"/><stop offset="1" stop-color="#95574F"/></radialGradient>
    <radialGradient id="gRbc" cx="0.4" cy="0.4" r="0.8"><stop offset="0" stop-color="#D27B72"/><stop offset="0.55" stop-color="#B2534B"/><stop offset="1" stop-color="#B2534B"/></radialGradient>
    <radialGradient id="gMito" cx="0.35" cy="0.3" r="0.8"><stop offset="0" stop-color="#E8CFBF"/><stop offset="0.55" stop-color="#CDA893"/><stop offset="1" stop-color="#8E5A4C"/></radialGradient>
    <radialGradient id="gMol1" cx="0.35" cy="0.3" r="0.8"><stop offset="0" stop-color="#F4F1EB"/><stop offset="0.55" stop-color="#A9B3BC"/><stop offset="1" stop-color="#7F8B95"/></radialGradient>
    <radialGradient id="gMol2" cx="0.35" cy="0.3" r="0.8"><stop offset="0" stop-color="#F4F1EB"/><stop offset="0.55" stop-color="#ABA597"/><stop offset="1" stop-color="#827C70"/></radialGradient>
    <radialGradient id="gMol3" cx="0.35" cy="0.3" r="0.8"><stop offset="0" stop-color="#F4F1EB"/><stop offset="0.55" stop-color="#CFBEA8"/><stop offset="1" stop-color="#A28F77"/></radialGradient>
    <radialGradient id="gSat" cx="0.35" cy="0.3" r="0.8"><stop offset="0" stop-color="#D8CFE0"/><stop offset="0.55" stop-color="#9C8FA8"/><stop offset="1" stop-color="#6F6380"/></radialGradient>
    <filter id="shadow" x="-20%" y="-20%" width="140%" height="160%"><feDropShadow dx="0" dy="10" stdDeviation="10" flood-color="#362D28" flood-opacity="0.14"/></filter>
    <filter id="soft" x="-20%" y="-20%" width="140%" height="160%"><feDropShadow dx="0" dy="4" stdDeviation="4" flood-color="#362D28" flood-opacity="0.10"/></filter>
  </defs>
    <g ><circle cx="243.8" cy="640.3" r="8.8" fill="#ABA597"/><circle cx="241.1" cy="637.7" r="2.5" fill="#fff" opacity="0.55"/><circle cx="217.9" cy="597.9" r="8.0" fill="#ABA597"/><circle cx="215.5" cy="595.5" r="2.2" fill="#fff" opacity="0.55"/><circle cx="192.9" cy="560.0" r="8.9" fill="#ABA597"/><circle cx="190.3" cy="557.3" r="2.5" fill="#fff" opacity="0.55"/><circle cx="197.2" cy="515.0" r="8.7" fill="#ABA597"/><circle cx="194.6" cy="512.4" r="2.4" fill="#fff" opacity="0.55"/><circle cx="199.0" cy="491.1" r="9.5" fill="#ABA597"/><circle cx="196.1" cy="488.3" r="2.7" fill="#fff" opacity="0.55"/><circle cx="186.6" cy="436.8" r="8.3" fill="#ABA597"/><circle cx="184.1" cy="434.3" r="2.3" fill="#fff" opacity="0.55"/><circle cx="208.5" cy="400.3" r="7.2" fill="#ABA597"/><circle cx="206.3" cy="398.2" r="2.0" fill="#fff" opacity="0.55"/><circle cx="212.9" cy="370.0" r="8.4" fill="#ABA597"/><circle cx="210.4" cy="367.5" r="2.3" fill="#fff" opacity="0.55"/><circle cx="228.2" cy="334.3" r="8.8" fill="#ABA597"/><circle cx="225.6" cy="331.6" r="2.5" fill="#fff" opacity="0.55"/></g>
    <g transform="translate(262 250) rotate(0) scale(1)" ><g >
    <path d="M-190,-55 L190,-55 L190,55 L-190,55 Z" fill="#C4807A" stroke="#95574F" stroke-opacity="0.6" stroke-width="1.5"/>
    <ellipse cx="-190" cy="0" rx="17.6" ry="55" fill="#C4807A"/>
    <path d="M-190,-30.250000000000004 L190,-30.250000000000004 L190,30.250000000000004 L-190,30.250000000000004 Z" fill="#E9C8C0" opacity="0.9"/>
    <g transform="translate(-131.6 9.2)"><ellipse rx="16.5" ry="11.879999999999999" fill="#B2534B"/><ellipse rx="7.425" ry="4.95" fill="#B2534B" opacity="0.8"/></g><g transform="translate(28.4 -1.5)"><ellipse rx="16.5" ry="11.879999999999999" fill="#B2534B"/><ellipse rx="7.425" ry="4.95" fill="#B2534B" opacity="0.8"/></g><g transform="translate(-64.4 34.6)"><ellipse rx="16.5" ry="11.879999999999999" fill="#B2534B"/><ellipse rx="7.425" ry="4.95" fill="#B2534B" opacity="0.8"/></g>
    <ellipse cx="190" cy="0" rx="17.6" ry="55" fill="#DEA69E"/><ellipse cx="190" cy="0" rx="13.728000000000002" ry="37.400000000000006" fill="#95574F"/><ellipse cx="190" cy="0" rx="10.56" ry="27.5" fill="#E9C8C0" opacity="0.85"/>
    <path d="M-171,-42.9 L171,-42.9" stroke="#fff" stroke-opacity="0.3" stroke-width="8.8" stroke-linecap="round"/></g></g>
    <g ><circle cx="113.3" cy="240.8" r="8.3" fill="#ABA597"/><circle cx="110.8" cy="238.3" r="2.3" fill="#fff" opacity="0.55"/><circle cx="125.3" cy="252.7" r="5.4" fill="#ABA597"/><circle cx="123.7" cy="251.1" r="1.5" fill="#fff" opacity="0.55"/><circle cx="135.9" cy="258.3" r="9.8" fill="#ABA597"/><circle cx="132.9" cy="255.3" r="2.7" fill="#fff" opacity="0.55"/><circle cx="155.8" cy="242.2" r="6.0" fill="#ABA597"/><circle cx="154.0" cy="240.4" r="1.7" fill="#fff" opacity="0.55"/><circle cx="196.0" cy="241.4" r="8.5" fill="#ABA597"/><circle cx="193.4" cy="238.8" r="2.4" fill="#fff" opacity="0.55"/><circle cx="215.2" cy="240.6" r="7.9" fill="#ABA597"/><circle cx="212.8" cy="238.3" r="2.2" fill="#fff" opacity="0.55"/><circle cx="224.3" cy="250.8" r="6.6" fill="#ABA597"/><circle cx="222.3" cy="248.8" r="1.8" fill="#fff" opacity="0.55"/><circle cx="260.0" cy="256.6" r="7.0" fill="#ABA597"/><circle cx="257.9" cy="254.5" r="2.0" fill="#fff" opacity="0.55"/><circle cx="281.4" cy="243.1" r="5.9" fill="#ABA597"/><circle cx="279.6" cy="241.3" r="1.6" fill="#fff" opacity="0.55"/><circle cx="299.1" cy="246.9" r="5.5" fill="#ABA597"/><circle cx="297.4" cy="245.2" r="1.5" fill="#fff" opacity="0.55"/><circle cx="324.0" cy="253.0" r="8.4" fill="#ABA597"/><circle cx="321.5" cy="250.4" r="2.4" fill="#fff" opacity="0.55"/><circle cx="340.9" cy="246.1" r="5.2" fill="#ABA597"/><circle cx="339.4" cy="244.5" r="1.5" fill="#fff" opacity="0.55"/><circle cx="360.8" cy="237.1" r="10.3" fill="#ABA597"/><circle cx="357.7" cy="234.0" r="2.9" fill="#fff" opacity="0.55"/><circle cx="394.3" cy="236.9" r="8.2" fill="#ABA597"/><circle cx="391.8" cy="234.4" r="2.3" fill="#fff" opacity="0.55"/><circle cx="400.4" cy="256.2" r="7.4" fill="#ABA597"/><circle cx="398.2" cy="254.0" r="2.1" fill="#fff" opacity="0.55"/><circle cx="441.8" cy="253.9" r="10.5" fill="#ABA597"/><circle cx="438.7" cy="250.8" r="2.9" fill="#fff" opacity="0.55"/></g>
    <g transform="translate(400 480) rotate(0) scale(1)" ><g  transform="scale(1.2)"><circle cx="8" cy="-48" r="24" fill="#EBDCBB" stroke="#CDB48A" stroke-opacity="0.7" stroke-width="1.5"/><circle cx="16.4" cy="-40.8" r="3.3600000000000003" fill="#CDB48A" opacity="0.6"/><circle cx="-40" cy="-26" r="28" fill="#EBDCBB" stroke="#CDB48A" stroke-opacity="0.7" stroke-width="1.5"/><circle cx="-30.200000000000003" cy="-17.6" r="3.9200000000000004" fill="#CDB48A" opacity="0.6"/><circle cx="48" cy="-18" r="30" fill="#EBDCBB" stroke="#CDB48A" stroke-opacity="0.7" stroke-width="1.5"/><circle cx="58.5" cy="-9" r="4.2" fill="#CDB48A" opacity="0.6"/><circle cx="-58" cy="6" r="24" fill="#EBDCBB" stroke="#CDB48A" stroke-opacity="0.7" stroke-width="1.5"/><circle cx="-49.6" cy="13.2" r="3.3600000000000003" fill="#CDB48A" opacity="0.6"/><circle cx="62" cy="22" r="24" fill="#EBDCBB" stroke="#CDB48A" stroke-opacity="0.7" stroke-width="1.5"/><circle cx="70.4" cy="29.2" r="3.3600000000000003" fill="#CDB48A" opacity="0.6"/><circle cx="0" cy="0" r="34" fill="#EBDCBB" stroke="#CDB48A" stroke-opacity="0.7" stroke-width="1.5"/><circle cx="11.899999999999999" cy="10.2" r="4.760000000000001" fill="#CDB48A" opacity="0.6"/><circle cx="-28" cy="34" r="26" fill="#EBDCBB" stroke="#CDB48A" stroke-opacity="0.7" stroke-width="1.5"/><circle cx="-18.9" cy="41.8" r="3.6400000000000006" fill="#CDB48A" opacity="0.6"/><circle cx="30" cy="34" r="30" fill="#EBDCBB" stroke="#CDB48A" stroke-opacity="0.7" stroke-width="1.5"/><circle cx="40.5" cy="43" r="4.2" fill="#CDB48A" opacity="0.6"/><circle cx="-12" cy="62" r="22" fill="#EBDCBB" stroke="#CDB48A" stroke-opacity="0.7" stroke-width="1.5"/><circle cx="-4.300000000000001" cy="68.6" r="3.08" fill="#CDB48A" opacity="0.6"/><circle cx="44" cy="52" r="20" fill="#EBDCBB" stroke="#CDB48A" stroke-opacity="0.7" stroke-width="1.5"/><circle cx="51" cy="58" r="2.8000000000000003" fill="#CDB48A" opacity="0.6"/></g></g>
    <g transform="translate(30 640) rotate(0) scale(2.3)" ><g ><path d="M6,40 C10,20 36,10 60,16 C84,22 104,10 130,12 C160,14 190,26 194,42 C190,56 160,62 130,58 C104,54 84,64 60,58 C36,52 10,56 6,40 Z" fill="#E2C9A8" stroke="#B9956F" stroke-opacity="0.6" stroke-width="1.5"/><path d="M40,18 C44,30 36,44 40,56" fill="none" stroke="#B9956F" stroke-opacity="0.4" stroke-width="2"/><path d="M70,18 C74,30 66,44 70,56" fill="none" stroke="#B9956F" stroke-opacity="0.4" stroke-width="2"/><path d="M100,18 C104,30 96,44 100,56" fill="none" stroke="#B9956F" stroke-opacity="0.4" stroke-width="2"/><path d="M130,18 C134,30 126,44 130,56" fill="none" stroke="#B9956F" stroke-opacity="0.4" stroke-width="2"/><path d="M160,18 C164,30 156,44 160,56" fill="none" stroke="#B9956F" stroke-opacity="0.4" stroke-width="2"/></g></g></svg>
