<svg xmlns="http://www.w3.org/2000/svg" viewBox="0 0 520 900" width="520" height="900"><defs>
    <linearGradient id="gMuscle" x1="0" y1="0" x2="0" y2="1"><stop offset="0" stop-color="#E0AE9F"/><stop offset="0.5" stop-color="#B9776A"/><stop offset="1" stop-color="#8A4F43"/></linearGradient>
    <linearGradient id="gMuted" x1="0" y1="0" x2="0" y2="1"><stop offset="0" stop-color="#DCC5B9"/><stop offset="0.5" stop-color="#CBAE9F"/><stop offset="1" stop-color="#A98B7D"/></linearGradient>
    <linearGradient id="gTendon" x1="0" y1="0" x2="1" y2="0"><stop offset="0" stop-color="#EFE9DE"/><stop offset="0.5" stop-color="#EFE9DE"/><stop offset="1" stop-color="#CFC5B4"/></linearGradient>
    <linearGradient id="gVessel" x1="0" y1="0" x2="0" y2="1"><stop offset="0" stop-color="#DEA69E"/><stop offset="0.5" stop-color="#C4807A"/><stop offset="1" stop-color="#95574F"/></linearGradient>
    <linearGradient id="gSkin" x1="0" y1="0" x2="0" y2="1"><stop offset="0" stop-color="#F3EAE0"/><stop offset="0.5" stop-color="#EBDFD2"/><stop offset="1" stop-color="#CDB9A6"/></linearGradient>
    <radialGradient id="gFat" cx="0.35" cy="0.3" r="0.8"><stop offset="0" stop-color="#F7EEDA"/><stop offset="0.55" stop-color="#EBDCBB"/><stop offset="1" stop-color="#CDB48A"/></radialGradient>
    <radialGradient id="gLiver" cx="0.3" cy="0.25" r="0.8"><stop offset="0" stop-color="#BC8575"/><stop offset="0.55" stop-color="#9B6557"/><stop offset="1" stop-color="#6E4036"/></radialGradient>
    <radialGradient id="gBrain" cx="0.35" cy="0.25" r="0.8"><stop offset="0" stop-color="#EDD9D0"/><stop offset="0.55" stop-color="#D9BBB0"/><stop offset="1" stop-color="#B38E85"/></radialGradient>
    <radialGradient id="gLumen" cx="0.5" cy="0.5" r="0.8"><stop offset="0" stop-color="#E9C8C0"/><stop offset="0.55" stop-color="#95574F"/><stop offset="1" stop-color="#95574F"/></radialGradient>
    <radialGradient id="gRbc" cx="0.4" cy="0.4" r="0.8"><stop offset="0" stop-color="#D27B72"/><stop offset="0.55" stop-color="#B2534B"/><stop offset="1" stop-color="#B2534B"/></radialGradient>
    <radialGradient id="gMito" cx="0.35" cy="0.3" r="0.8"><stop offset="0" stop-color="#E8CFBF"/><stop offset="0.55" stop-color="#CDA893"/><stop offset="1" stop-color="#8E5A4C"/></radialGradient>
    <radialGradient id="gMol1" cx="0.35" cy="0.3" r="0.8"><stop offset="0" stop-color="#F4F1EB"/><stop offset="0.55" stop-color="#A9B3BC"/><stop offset="1" stop-color="#7F8B95"/></radialGradient>
    <radialGradient id="gMol2" cx="0.35" cy="0.3" r="0.8"><stop offset="0" stop-color="#F4F1EB"/><stop offset="0.55" stop-color="#ABA597"/><stop offset="1" stop-color="#827C70"/></radialGradient>
    <radialGradient id="gMol3" cx="0.35" cy="0.3" r="0.8"><stop offset="0" stop-color="#F4F1EB"/><stop offset="0.55" stop-color="#CFBEA8"/><stop offset="1" stop-color="#A28F77"/></radialGradient>
    <radialGradient id="gSat" cx="0.35" cy="0.3" r="0.8"><stop offset="0" stop-color="#D8CFE0"/><stop offset="0.55" stop-color="#9C8FA8"/><stop offset="1" stop-color="#6F6380"/></radialGradient>
    <filter id="shadow" x="-20%" y="-20%" width="140%" height="160%"><feDropShadow dx="0" dy="10" stdDeviation="10" flood-color="#362D28" flood-opacity="0.14"/></filter>
    <filter id="soft" x="-20%" y="-20%" width="140%" height="160%"><feDropShadow dx="0" dy="4" stdDeviation="4" flood-color="#362D28" flood-opacity="0.10"/></filter>
  </defs>
    <g transform="translate(345 225) rotate(0) scale(1)" ><g><circle r="170" fill="#EFE9DE" stroke="#CFC5B4" stroke-width="1.5"/><circle r="136" fill="none" stroke="#CFC5B4" stroke-opacity="0.6" stroke-width="1.5"/><path d="M0,0 L0,-115.60000000000001 A115.60000000000001,115.60000000000001 0 0 1 89.1,-73.7 Z" fill="#EBDCBB" stroke="#CDB48A" stroke-opacity="0.6" stroke-width="1.5"/>
    <path d="M-102,-93.50000000000001 A144.5,144.5 0 0 1 17,-153" fill="none" stroke="#fff" stroke-opacity="0.35" stroke-width="5" stroke-linecap="round"/></g></g>
    <g ><g opacity="0.94"><circle cx="324.4" cy="406.9" r="7.5" fill="#ABA597"/><circle cx="322.2" cy="404.6" r="2.1" fill="#fff" opacity="0.55"/></g><g opacity="0.82"><circle cx="297.1" cy="430.5" r="5.8" fill="#ABA597"/><circle cx="295.4" cy="428.8" r="1.6" fill="#fff" opacity="0.55"/></g><g opacity="0.70"><circle cx="293.5" cy="465.2" r="7.1" fill="#ABA597"/><circle cx="291.3" cy="463.0" r="2.0" fill="#fff" opacity="0.55"/></g><g opacity="0.57"><circle cx="281.8" cy="479.2" r="8.5" fill="#ABA597"/><circle cx="279.2" cy="476.7" r="2.4" fill="#fff" opacity="0.55"/></g><g opacity="0.45"><circle cx="270.3" cy="500.9" r="7.2" fill="#ABA597"/><circle cx="268.2" cy="498.8" r="2.0" fill="#fff" opacity="0.55"/></g><g opacity="0.33"><circle cx="247.6" cy="538.7" r="5.1" fill="#ABA597"/><circle cx="246.0" cy="537.2" r="1.4" fill="#fff" opacity="0.55"/></g><g opacity="0.21"><circle cx="241.7" cy="560.8" r="4.4" fill="#ABA597"/><circle cx="240.4" cy="559.5" r="1.2" fill="#fff" opacity="0.55"/></g></g>
    <g transform="translate(386 718) rotate(0) scale(1)" ><path d="M28.3,-28.3 A40,40 0 0 1 28.3,28.3" fill="none" stroke="#6F6356" stroke-width="2.5" stroke-linecap="round" opacity="0.75"/><path d="M46.7,-46.7 A66,66 0 0 1 46.7,46.7" fill="none" stroke="#6F6356" stroke-width="2.5" stroke-linecap="round" opacity="0.59"/><path d="M65.1,-65.1 A92,92 0 0 1 65.1,65.1" fill="none" stroke="#6F6356" stroke-width="2.5" stroke-linecap="round" opacity="0.43"/><path d="M83.4,-83.4 A118,118 0 0 1 83.4,83.4" fill="none" stroke="#6F6356" stroke-width="2.5" stroke-linecap="round" opacity="0.27"/></g>
    <g transform="translate(30 565) rotate(0) scale(1.7)" ><g ><path d="M104,138 C108,150 112,162 110,176 L124,178 C124,164 120,150 118,142 Z" fill="#B38E85"/><path d="M118,132 C132,124 158,124 170,134 C162,154 130,158 116,146 Z" fill="#D9BBB0" stroke="#B38E85" stroke-width="1.5"/>
    <path d="M18,100 C6,62 36,26 84,16 C124,6 172,18 194,56 C208,82 200,114 176,124 C166,140 136,146 114,136 C104,150 76,156 58,142 C40,146 24,132 26,116 C14,112 10,104 18,100 Z" fill="#D9BBB0" stroke="#B38E85" stroke-opacity="0.7" stroke-width="1.5"/><path d="M44,62 C58,50 64,78 84,64 C100,54 106,80 126,68" fill="none" stroke="#B38E85" stroke-opacity="0.55" stroke-width="3" stroke-linecap="round"/><path d="M38,90 C56,78 66,104 90,90 C108,80 118,104 140,92" fill="none" stroke="#B38E85" stroke-opacity="0.55" stroke-width="3" stroke-linecap="round"/><path d="M60,116 C76,104 84,126 104,112" fill="none" stroke="#B38E85" stroke-opacity="0.55" stroke-width="3" stroke-linecap="round"/><path d="M100,40 C114,30 124,52 142,42 C156,36 164,54 182,50" fill="none" stroke="#B38E85" stroke-opacity="0.55" stroke-width="3" stroke-linecap="round"/><path d="M140,110 C150,100 160,116 174,104" fill="none" stroke="#B38E85" stroke-opacity="0.55" stroke-width="3" stroke-linecap="round"/><path d="M68,36 C82,28 90,46 108,36" fill="none" stroke="#B38E85" stroke-opacity="0.55" stroke-width="3" stroke-linecap="round"/><path d="M104,112 C110,124 108,136 104,140" fill="none" stroke="#8A4F43" stroke-width="3" stroke-linecap="round" opacity="0.8"/>
    <ellipse cx="104" cy="108" rx="17" ry="12" fill="#B9776A" stroke="#8A4F43" stroke-width="1.5"/>
    <ellipse cx="100" cy="105" rx="7" ry="4" fill="#fff" opacity="0.25"/></g></g></svg>
