<svg xmlns="http://www.w3.org/2000/svg" viewBox="0 0 488 370" width="488" height="370"><defs>
    <linearGradient id="gMuscle" x1="0" y1="0" x2="0" y2="1"><stop offset="0" stop-color="#E0AE9F"/><stop offset="0.5" stop-color="#B9776A"/><stop offset="1" stop-color="#8A4F43"/></linearGradient>
    <linearGradient id="gMuted" x1="0" y1="0" x2="0" y2="1"><stop offset="0" stop-color="#DCC5B9"/><stop offset="0.5" stop-color="#CBAE9F"/><stop offset="1" stop-color="#A98B7D"/></linearGradient>
    <linearGradient id="gTendon" x1="0" y1="0" x2="1" y2="0"><stop offset="0" stop-color="#EFE9DE"/><stop offset="0.5" stop-color="#EFE9DE"/><stop offset="1" stop-color="#CFC5B4"/></linearGradient>
    <linearGradient id="gVessel" x1="0" y1="0" x2="0" y2="1"><stop offset="0" stop-color="#DEA69E"/><stop offset="0.5" stop-color="#C4807A"/><stop offset="1" stop-color="#95574F"/></linearGradient>
    <linearGradient id="gSkin" x1="0" y1="0" x2="0" y2="1"><stop offset="0" stop-color="#F3EAE0"/><stop offset="0.5" stop-color="#EBDFD2"/><stop offset="1" stop-color="#CDB9A6"/></linearGradient>
    <radialGradient id="gFat" cx="0.35" cy="0.3" r="0.8"><stop offset="0" stop-color="#F7EEDA"/><stop offset="0.55" stop-color="#EBDCBB"/><stop offset="1" stop-color="#CDB48A"/></radialGradient>
    <radialGradient id="gLiver" cx="0.3" cy="0.25" r="0.8"><stop offset="0" stop-color="#BC8575"/><stop offset="0.55" stop-color="#9B6557"/><stop offset="1" stop-color="#6E4036"/></radialGradient>
    <radialGradient id="gBrain" cx="0.35" cy="0.25" r="0.8"><stop offset="0" stop-color="#EDD9D0"/><stop offset="0.55" stop-color="#D9BBB0"/><stop offset="1" stop-color="#B38E85"/></radialGradient>
    <radialGradient id="gLumen" cx="0.5" cy="0.5" r="0.8"><stop offset="0" stop-color="#E9C8C0"/><stop offset="0.55" stop-color="#95574F"/><stop offset="1" stop-color="#95574F"/></radialGradient>
    <radialGradient id="gRbc" cx="0.4" cy="0.4" r="0.8"><stop offset="0" stop-color="#D27B72"/><stop offset="0.55" stop-color="#B2534B"/><stop offset="1" stop-color="#B2534B"/></radialGradient>
    <radialGradient id="gMito" cx="0.35" cy="0.3" r="0.8"><stop offset="0" stop-color="#E8CFBF"/><stop offset="0.55" stop-color="#CDA893"/><stop offset="1" stop-color="#8E5A4C"/></radialGradient>
    <radialGradient id="gMol1" cx="0.35" cy="0.3" r="0.8"><stop offset="0" stop-color="#F4F1EB"/><stop offset="0.55" stop-color="#A9B3BC"/><stop offset="1" stop-color="#7F8B95"/></radialGradient>
    <radialGradient id="gMol2" cx="0.35" cy="0.3" r="0.8"><stop offset="0" stop-color="#F4F1EB"/><stop offset="0.55" stop-color="#ABA597"/><stop offset="1" stop-color="#827C70"/></radialGradient>
    <radialGradient id="gMol3" cx="0.35" cy="0.3" r="0.8"><stop offset="0" stop-color="#F4F1EB"/><stop offset="0.55" stop-color="#CFBEA8"/><stop offset="1" stop-color="#A28F77"/></radialGradient>
    <radialGradient id="gSat" cx="0.35" cy="0.3" r="0.8"><stop offset="0" stop-color="#D8CFE0"/><stop offset="0.55" stop-color="#9C8FA8"/><stop offset="1" stop-color="#6F6380"/></radialGradient>
    <filter id="shadow" x="-20%" y="-20%" width="140%" height="160%"><feDropShadow dx="0" dy="10" stdDeviation="10" flood-color="#362D28" flood-opacity="0.14"/></filter>
    <filter id="soft" x="-20%" y="-20%" width="140%" height="160%"><feDropShadow dx="0" dy="4" stdDeviation="4" flood-color="#362D28" flood-opacity="0.10"/></filter>
  </defs>
    <g ><circle cx="231.9" cy="144.5" r="9.0" fill="#CFBEA8"/><circle cx="229.2" cy="141.8" r="2.5" fill="#fff" opacity="0.55"/><circle cx="210.0" cy="117.9" r="9.0" fill="#CFBEA8"/><circle cx="207.3" cy="115.2" r="2.5" fill="#fff" opacity="0.55"/><circle cx="195.3" cy="107.4" r="9.7" fill="#CFBEA8"/><circle cx="192.4" cy="104.5" r="2.7" fill="#fff" opacity="0.55"/><circle cx="179.4" cy="90.9" r="7.5" fill="#CFBEA8"/><circle cx="177.2" cy="88.6" r="2.1" fill="#fff" opacity="0.55"/><circle cx="168.3" cy="88.0" r="4.9" fill="#CFBEA8"/><circle cx="166.9" cy="86.6" r="1.4" fill="#fff" opacity="0.55"/><circle cx="139.9" cy="76.8" r="4.5" fill="#CFBEA8"/><circle cx="138.5" cy="75.4" r="1.3" fill="#fff" opacity="0.55"/><circle cx="127.8" cy="76.9" r="8.8" fill="#CFBEA8"/><circle cx="125.2" cy="74.3" r="2.5" fill="#fff" opacity="0.55"/><circle cx="110.0" cy="66.3" r="8.2" fill="#CFBEA8"/><circle cx="107.5" cy="63.9" r="2.3" fill="#fff" opacity="0.55"/></g>
    <g ><circle cx="248.3" cy="141.6" r="4.3" fill="#CFBEA8"/><circle cx="247.0" cy="140.3" r="1.2" fill="#fff" opacity="0.55"/><circle cx="279.2" cy="118.8" r="6.2" fill="#CFBEA8"/><circle cx="277.3" cy="117.0" r="1.7" fill="#fff" opacity="0.55"/><circle cx="286.1" cy="104.7" r="9.5" fill="#CFBEA8"/><circle cx="283.2" cy="101.8" r="2.7" fill="#fff" opacity="0.55"/><circle cx="302.9" cy="91.1" r="4.9" fill="#CFBEA8"/><circle cx="301.5" cy="89.6" r="1.4" fill="#fff" opacity="0.55"/><circle cx="321.5" cy="83.8" r="6.7" fill="#CFBEA8"/><circle cx="319.5" cy="81.8" r="1.9" fill="#fff" opacity="0.55"/><circle cx="347.6" cy="74.8" r="5.6" fill="#CFBEA8"/><circle cx="345.9" cy="73.1" r="1.6" fill="#fff" opacity="0.55"/><circle cx="359.1" cy="69.7" r="9.9" fill="#CFBEA8"/><circle cx="356.1" cy="66.8" r="2.8" fill="#fff" opacity="0.55"/><circle cx="375.8" cy="74.6" r="4.2" fill="#CFBEA8"/><circle cx="374.6" cy="73.3" r="1.2" fill="#fff" opacity="0.55"/></g>
    <g ><circle cx="242.5" cy="239.3" r="5.6" fill="#CFBEA8"/><circle cx="240.9" cy="237.6" r="1.6" fill="#fff" opacity="0.55"/><circle cx="226.3" cy="257.1" r="9.4" fill="#CFBEA8"/><circle cx="223.5" cy="254.3" r="2.6" fill="#fff" opacity="0.55"/><circle cx="197.7" cy="270.6" r="9.4" fill="#CFBEA8"/><circle cx="194.8" cy="267.8" r="2.6" fill="#fff" opacity="0.55"/><circle cx="190.5" cy="285.6" r="8.3" fill="#CFBEA8"/><circle cx="188.0" cy="283.1" r="2.3" fill="#fff" opacity="0.55"/><circle cx="168.7" cy="293.9" r="8.6" fill="#CFBEA8"/><circle cx="166.1" cy="291.4" r="2.4" fill="#fff" opacity="0.55"/><circle cx="152.0" cy="301.4" r="6.6" fill="#CFBEA8"/><circle cx="150.0" cy="299.5" r="1.9" fill="#fff" opacity="0.55"/><circle cx="146.3" cy="314.0" r="5.0" fill="#CFBEA8"/><circle cx="144.8" cy="312.5" r="1.4" fill="#fff" opacity="0.55"/><circle cx="129.4" cy="309.3" r="6.2" fill="#CFBEA8"/><circle cx="127.6" cy="307.5" r="1.7" fill="#fff" opacity="0.55"/></g>
    <g ><circle cx="257.7" cy="236.5" r="6.9" fill="#CFBEA8"/><circle cx="255.6" cy="234.4" r="1.9" fill="#fff" opacity="0.55"/><circle cx="277.3" cy="258.0" r="6.5" fill="#CFBEA8"/><circle cx="275.4" cy="256.1" r="1.8" fill="#fff" opacity="0.55"/><circle cx="295.3" cy="281.9" r="9.3" fill="#CFBEA8"/><circle cx="292.5" cy="279.1" r="2.6" fill="#fff" opacity="0.55"/><circle cx="303.4" cy="285.8" r="5.8" fill="#CFBEA8"/><circle cx="301.6" cy="284.1" r="1.6" fill="#fff" opacity="0.55"/><circle cx="321.4" cy="303.7" r="4.4" fill="#CFBEA8"/><circle cx="320.1" cy="302.4" r="1.2" fill="#fff" opacity="0.55"/><circle cx="341.3" cy="313.4" r="7.7" fill="#CFBEA8"/><circle cx="339.0" cy="311.1" r="2.1" fill="#fff" opacity="0.55"/><circle cx="354.8" cy="306.8" r="6.1" fill="#CFBEA8"/><circle cx="352.9" cy="304.9" r="1.7" fill="#fff" opacity="0.55"/><circle cx="367.7" cy="317.5" r="8.1" fill="#CFBEA8"/><circle cx="365.3" cy="315.1" r="2.3" fill="#fff" opacity="0.55"/></g>
    <g transform="translate(20 20) rotate(0) scale(0.5)" ><g ><path d="M10,60 C10,25 50,10 95,12 C150,14 210,30 212,70 C214,100 180,122 140,126 C100,130 60,135 35,115 C15,100 8,80 10,60 Z" fill="#9B6557" stroke="#6E4036" stroke-opacity="0.6" stroke-width="1.5"/>
    <path d="M118,16 C124,60 118,96 104,126" fill="none" stroke="#6E4036" stroke-opacity="0.5" stroke-width="3"/>
    <ellipse cx="60" cy="52" rx="34" ry="14" fill="#fff" opacity="0.18" transform="rotate(-12 60 52)"/>
    <ellipse cx="128" cy="116" rx="24" ry="11" fill="#B7A676"/></g></g>
    <g transform="translate(400 60) rotate(0) scale(1)" ><g  transform="scale(0.42)"><circle cx="8" cy="-48" r="24" fill="#EBDCBB" stroke="#CDB48A" stroke-opacity="0.7" stroke-width="1.5"/><circle cx="16.4" cy="-40.8" r="3.3600000000000003" fill="#CDB48A" opacity="0.6"/><circle cx="-40" cy="-26" r="28" fill="#EBDCBB" stroke="#CDB48A" stroke-opacity="0.7" stroke-width="1.5"/><circle cx="-30.200000000000003" cy="-17.6" r="3.9200000000000004" fill="#CDB48A" opacity="0.6"/><circle cx="48" cy="-18" r="30" fill="#EBDCBB" stroke="#CDB48A" stroke-opacity="0.7" stroke-width="1.5"/><circle cx="58.5" cy="-9" r="4.2" fill="#CDB48A" opacity="0.6"/><circle cx="-58" cy="6" r="24" fill="#EBDCBB" stroke="#CDB48A" stroke-opacity="0.7" stroke-width="1.5"/><circle cx="-49.6" cy="13.2" r="3.3600000000000003" fill="#CDB48A" opacity="0.6"/><circle cx="62" cy="22" r="24" fill="#EBDCBB" stroke="#CDB48A" stroke-opacity="0.7" stroke-width="1.5"/><circle cx="70.4" cy="29.2" r="3.3600000000000003" fill="#CDB48A" opacity="0.6"/><circle cx="0" cy="0" r="34" fill="#EBDCBB" stroke="#CDB48A" stroke-opacity="0.7" stroke-width="1.5"/><circle cx="11.899999999999999" cy="10.2" r="4.760000000000001" fill="#CDB48A" opacity="0.6"/><circle cx="-28" cy="34" r="26" fill="#EBDCBB" stroke="#CDB48A" stroke-opacity="0.7" stroke-width="1.5"/><circle cx="-18.9" cy="41.8" r="3.6400000000000006" fill="#CDB48A" opacity="0.6"/><circle cx="30" cy="34" r="30" fill="#EBDCBB" stroke="#CDB48A" stroke-opacity="0.7" stroke-width="1.5"/><circle cx="40.5" cy="43" r="4.2" fill="#CDB48A" opacity="0.6"/><circle cx="-12" cy="62" r="22" fill="#EBDCBB" stroke="#CDB48A" stroke-opacity="0.7" stroke-width="1.5"/><circle cx="-4.300000000000001" cy="68.6" r="3.08" fill="#CDB48A" opacity="0.6"/><circle cx="44" cy="52" r="20" fill="#EBDCBB" stroke="#CDB48A" stroke-opacity="0.7" stroke-width="1.5"/><circle cx="51" cy="58" r="2.8000000000000003" fill="#CDB48A" opacity="0.6"/></g></g>
    <g transform="translate(110 310) rotate(-10) scale(1)" ><g ><path d="M-63,-7.5600000000000005 L-105,-4.32 L-105,4.32 L-63,7.5600000000000005 Z" fill="#EFE9DE"/><path d="M63,-7.5600000000000005 L105,-4.32 L105,4.32 L63,7.5600000000000005 Z" fill="#EFE9DE"/><path d="M-75,0 C-75,-14.850000000000001 -33.75,-27 0,-27 C33.75,-27 75,-14.850000000000001 75,0 C75,14.850000000000001 33.75,27 0,27 C-33.75,27 -75,14.850000000000001 -75,0 Z" fill="#B9776A" stroke="#8A4F43" stroke-opacity="0.5" stroke-width="1.5"/><path d="M-60,-9.45 C-22.5,-21.6 18.75,-21.6 56.25,-10.8" fill="none" stroke="#fff" stroke-opacity="0.22" stroke-width="4.859999999999999" stroke-linecap="round"/><path d="M-72,-3.9 C-30,-17.7 29.1,-17.7 72.75,-3.9" fill="none" stroke="#7A4539" stroke-opacity="0.32" stroke-width="1.6"/><path d="M-72,-2.9 C-30,-13.3 29.1,-13.3 72.75,-2.9" fill="none" stroke="#7A4539" stroke-opacity="0.32" stroke-width="1.6"/><path d="M-72,-1.9 C-30,-8.9 29.1,-8.9 72.75,-1.9" fill="none" stroke="#7A4539" stroke-opacity="0.32" stroke-width="1.6"/><path d="M-72,-1.0 C-30,-4.4 29.1,-4.4 72.75,-1.0" fill="none" stroke="#7A4539" stroke-opacity="0.32" stroke-width="1.6"/><path d="M-72,0.0 C-30,0.0 29.1,0.0 72.75,0.0" fill="none" stroke="#7A4539" stroke-opacity="0.32" stroke-width="1.6"/><path d="M-72,1.0 C-30,4.4 29.1,4.4 72.75,1.0" fill="none" stroke="#7A4539" stroke-opacity="0.32" stroke-width="1.6"/><path d="M-72,1.9 C-30,8.9 29.1,8.9 72.75,1.9" fill="none" stroke="#7A4539" stroke-opacity="0.32" stroke-width="1.6"/><path d="M-72,2.9 C-30,13.3 29.1,13.3 72.75,2.9" fill="none" stroke="#7A4539" stroke-opacity="0.32" stroke-width="1.6"/><path d="M-72,3.9 C-30,17.7 29.1,17.7 72.75,3.9" fill="none" stroke="#7A4539" stroke-opacity="0.32" stroke-width="1.6"/></g></g>
    <g transform="translate(380 310) rotate(-10) scale(1)" ><g >
    <path d="M-60,-20 L60,-20 L60,20 L-60,20 Z" fill="#C4807A" stroke="#95574F" stroke-opacity="0.6" stroke-width="1.5"/>
    <ellipse cx="-60" cy="0" rx="6.4" ry="20" fill="#C4807A"/>
    <path d="M-60,-11 L60,-11 L60,11 L-60,11 Z" fill="#E9C8C0" opacity="0.9"/>
    <g transform="translate(-32.8 3.4)"><ellipse rx="6" ry="4.32" fill="#B2534B"/><ellipse rx="2.7" ry="1.7999999999999998" fill="#B2534B" opacity="0.8"/></g><g transform="translate(-2.8 -0.6)"><ellipse rx="6" ry="4.32" fill="#B2534B"/><ellipse rx="2.7" ry="1.7999999999999998" fill="#B2534B" opacity="0.8"/></g><g transform="translate(-20.2 12.6)"><ellipse rx="6" ry="4.32" fill="#B2534B"/><ellipse rx="2.7" ry="1.7999999999999998" fill="#B2534B" opacity="0.8"/></g>
    <ellipse cx="60" cy="0" rx="6.4" ry="20" fill="#DEA69E"/><ellipse cx="60" cy="0" rx="4.992000000000001" ry="13.600000000000001" fill="#95574F"/><ellipse cx="60" cy="0" rx="3.84" ry="10" fill="#E9C8C0" opacity="0.85"/>
    <path d="M-54,-15.600000000000001 L54,-15.600000000000001" stroke="#fff" stroke-opacity="0.3" stroke-width="3.2" stroke-linecap="round"/></g></g>
    <g transform="translate(244 190) rotate(-90) scale(1)" ><g><rect x="-85" y="-15" width="170" height="30" rx="15" fill="#EFE9DE" stroke="#CFC5B4" stroke-width="1.5"/>
    <rect x="-85" y="-15" width="51" height="30" rx="15" fill="#362D28"/>
    <rect x="-47.6" y="-15" width="17" height="30" fill="#362D28"/>
    <rect x="13.600000000000009" y="-7.5" width="34" height="15" rx="3" fill="#F6F4F0" stroke="#CFC5B4" stroke-width="1"/>
    <rect x="64.6" y="-9" width="17" height="36" rx="4" fill="#ABA597"/>
    <circle cx="0" cy="9.25" r="4" fill="#A9B3BC"/><circle cx="14" cy="9.25" r="4" fill="#ABA597"/><circle cx="28" cy="9.25" r="4" fill="#CFBEA8"/>
  </g></g></svg>
