<svg xmlns="http://www.w3.org/2000/svg" viewBox="0 0 520 900" width="520" height="900"><defs>
    <linearGradient id="gMuscle" x1="0" y1="0" x2="0" y2="1"><stop offset="0" stop-color="#E0AE9F"/><stop offset="0.5" stop-color="#B9776A"/><stop offset="1" stop-color="#8A4F43"/></linearGradient>
    <linearGradient id="gMuted" x1="0" y1="0" x2="0" y2="1"><stop offset="0" stop-color="#DCC5B9"/><stop offset="0.5" stop-color="#CBAE9F"/><stop offset="1" stop-color="#A98B7D"/></linearGradient>
    <linearGradient id="gTendon" x1="0" y1="0" x2="1" y2="0"><stop offset="0" stop-color="#EFE9DE"/><stop offset="0.5" stop-color="#EFE9DE"/><stop offset="1" stop-color="#CFC5B4"/></linearGradient>
    <linearGradient id="gVessel" x1="0" y1="0" x2="0" y2="1"><stop offset="0" stop-color="#DEA69E"/><stop offset="0.5" stop-color="#C4807A"/><stop offset="1" stop-color="#95574F"/></linearGradient>
    <linearGradient id="gSkin" x1="0" y1="0" x2="0" y2="1"><stop offset="0" stop-color="#F3EAE0"/><stop offset="0.5" stop-color="#EBDFD2"/><stop offset="1" stop-color="#CDB9A6"/></linearGradient>
    <radialGradient id="gFat" cx="0.35" cy="0.3" r="0.8"><stop offset="0" stop-color="#F7EEDA"/><stop offset="0.55" stop-color="#EBDCBB"/><stop offset="1" stop-color="#CDB48A"/></radialGradient>
    <radialGradient id="gLiver" cx="0.3" cy="0.25" r="0.8"><stop offset="0" stop-color="#BC8575"/><stop offset="0.55" stop-color="#9B6557"/><stop offset="1" stop-color="#6E4036"/></radialGradient>
    <radialGradient id="gBrain" cx="0.35" cy="0.25" r="0.8"><stop offset="0" stop-color="#EDD9D0"/><stop offset="0.55" stop-color="#D9BBB0"/><stop offset="1" stop-color="#B38E85"/></radialGradient>
    <radialGradient id="gLumen" cx="0.5" cy="0.5" r="0.8"><stop offset="0" stop-color="#E9C8C0"/><stop offset="0.55" stop-color="#95574F"/><stop offset="1" stop-color="#95574F"/></radialGradient>
    <radialGradient id="gRbc" cx="0.4" cy="0.4" r="0.8"><stop offset="0" stop-color="#D27B72"/><stop offset="0.55" stop-color="#B2534B"/><stop offset="1" stop-color="#B2534B"/></radialGradient>
    <radialGradient id="gMito" cx="0.35" cy="0.3" r="0.8"><stop offset="0" stop-color="#E8CFBF"/><stop offset="0.55" stop-color="#CDA893"/><stop offset="1" stop-color="#8E5A4C"/></radialGradient>
    <radialGradient id="gMol1" cx="0.35" cy="0.3" r="0.8"><stop offset="0" stop-color="#F4F1EB"/><stop offset="0.55" stop-color="#A9B3BC"/><stop offset="1" stop-color="#7F8B95"/></radialGradient>
    <radialGradient id="gMol2" cx="0.35" cy="0.3" r="0.8"><stop offset="0" stop-color="#F4F1EB"/><stop offset="0.55" stop-color="#ABA597"/><stop offset="1" stop-color="#827C70"/></radialGradient>
    <radialGradient id="gMol3" cx="0.35" cy="0.3" r="0.8"><stop offset="0" stop-color="#F4F1EB"/><stop offset="0.55" stop-color="#CFBEA8"/><stop offset="1" stop-color="#A28F77"/></radialGradient>
    <radialGradient id="gSat" cx="0.35" cy="0.3" r="0.8"><stop offset="0" stop-color="#D8CFE0"/><stop offset="0.55" stop-color="#9C8FA8"/><stop offset="1" stop-color="#6F6380"/></radialGradient>
    <filter id="shadow" x="-20%" y="-20%" width="140%" height="160%"><feDropShadow dx="0" dy="10" stdDeviation="10" flood-color="#362D28" flood-opacity="0.14"/></filter>
    <filter id="soft" x="-20%" y="-20%" width="140%" height="160%"><feDropShadow dx="0" dy="4" stdDeviation="4" flood-color="#362D28" flood-opacity="0.10"/></filter>
  </defs>
    <g ><g opacity="0.96"><circle cx="225.4" cy="619.2" r="9.9" fill="#CFBEA8"/><circle cx="222.4" cy="616.2" r="2.8" fill="#fff" opacity="0.55"/></g><g opacity="0.88"><circle cx="237.1" cy="603.0" r="7.5" fill="#CFBEA8"/><circle cx="234.8" cy="600.8" r="2.1" fill="#fff" opacity="0.55"/></g><g opacity="0.81"><circle cx="275.7" cy="599.0" r="9.3" fill="#CFBEA8"/><circle cx="272.9" cy="596.2" r="2.6" fill="#fff" opacity="0.55"/></g><g opacity="0.73"><circle cx="296.9" cy="562.8" r="11.3" fill="#CFBEA8"/><circle cx="293.5" cy="559.4" r="3.2" fill="#fff" opacity="0.55"/></g><g opacity="0.65"><circle cx="312.4" cy="534.1" r="9.4" fill="#CFBEA8"/><circle cx="309.5" cy="531.3" r="2.6" fill="#fff" opacity="0.55"/></g><g opacity="0.57"><circle cx="305.8" cy="524.6" r="6.6" fill="#CFBEA8"/><circle cx="303.8" cy="522.6" r="1.8" fill="#fff" opacity="0.55"/></g><g opacity="0.50"><circle cx="316.8" cy="489.9" r="5.6" fill="#CFBEA8"/><circle cx="315.2" cy="488.2" r="1.6" fill="#fff" opacity="0.55"/></g><g opacity="0.42"><circle cx="329.1" cy="469.7" r="9.5" fill="#CFBEA8"/><circle cx="326.3" cy="466.9" r="2.7" fill="#fff" opacity="0.55"/></g><g opacity="0.34"><circle cx="354.4" cy="447.7" r="7.1" fill="#CFBEA8"/><circle cx="352.3" cy="445.6" r="2.0" fill="#fff" opacity="0.55"/></g><g opacity="0.27"><circle cx="376.3" cy="407.5" r="8.5" fill="#CFBEA8"/><circle cx="373.7" cy="405.0" r="2.4" fill="#fff" opacity="0.55"/></g><g opacity="0.19"><circle cx="378.4" cy="388.8" r="9.4" fill="#CFBEA8"/><circle cx="375.6" cy="386.0" r="2.6" fill="#fff" opacity="0.55"/></g></g>
    <g transform="translate(262 130) rotate(0) scale(1.15)" ><g ><path d="M104,138 C108,150 112,162 110,176 L124,178 C124,164 120,150 118,142 Z" fill="#B38E85"/><path d="M118,132 C132,124 158,124 170,134 C162,154 130,158 116,146 Z" fill="#D9BBB0" stroke="#B38E85" stroke-width="1.5"/>
    <path d="M18,100 C6,62 36,26 84,16 C124,6 172,18 194,56 C208,82 200,114 176,124 C166,140 136,146 114,136 C104,150 76,156 58,142 C40,146 24,132 26,116 C14,112 10,104 18,100 Z" fill="#D9BBB0" stroke="#B38E85" stroke-opacity="0.7" stroke-width="1.5"/><path d="M44,62 C58,50 64,78 84,64 C100,54 106,80 126,68" fill="none" stroke="#B38E85" stroke-opacity="0.55" stroke-width="3" stroke-linecap="round"/><path d="M38,90 C56,78 66,104 90,90 C108,80 118,104 140,92" fill="none" stroke="#B38E85" stroke-opacity="0.55" stroke-width="3" stroke-linecap="round"/><path d="M60,116 C76,104 84,126 104,112" fill="none" stroke="#B38E85" stroke-opacity="0.55" stroke-width="3" stroke-linecap="round"/><path d="M100,40 C114,30 124,52 142,42 C156,36 164,54 182,50" fill="none" stroke="#B38E85" stroke-opacity="0.55" stroke-width="3" stroke-linecap="round"/><path d="M140,110 C150,100 160,116 174,104" fill="none" stroke="#B38E85" stroke-opacity="0.55" stroke-width="3" stroke-linecap="round"/><path d="M68,36 C82,28 90,46 108,36" fill="none" stroke="#B38E85" stroke-opacity="0.55" stroke-width="3" stroke-linecap="round"/><path d="M104,112 C110,124 108,136 104,140" fill="none" stroke="#8A4F43" stroke-width="3" stroke-linecap="round" opacity="0.8"/>
    <ellipse cx="104" cy="108" rx="17" ry="12" fill="#B9776A" stroke="#8A4F43" stroke-width="1.5"/>
    <ellipse cx="100" cy="105" rx="7" ry="4" fill="#fff" opacity="0.25"/></g></g>
    <g transform="translate(150 720) rotate(0) scale(1)" ><g  transform="scale(1.6)"><circle cx="8" cy="-48" r="24" fill="#EBDCBB" stroke="#CDB48A" stroke-opacity="0.7" stroke-width="1.5"/><circle cx="16.4" cy="-40.8" r="3.3600000000000003" fill="#CDB48A" opacity="0.6"/><circle cx="-40" cy="-26" r="28" fill="#EBDCBB" stroke="#CDB48A" stroke-opacity="0.7" stroke-width="1.5"/><circle cx="-30.200000000000003" cy="-17.6" r="3.9200000000000004" fill="#CDB48A" opacity="0.6"/><circle cx="48" cy="-18" r="30" fill="#EBDCBB" stroke="#CDB48A" stroke-opacity="0.7" stroke-width="1.5"/><circle cx="58.5" cy="-9" r="4.2" fill="#CDB48A" opacity="0.6"/><circle cx="-58" cy="6" r="24" fill="#EBDCBB" stroke="#CDB48A" stroke-opacity="0.7" stroke-width="1.5"/><circle cx="-49.6" cy="13.2" r="3.3600000000000003" fill="#CDB48A" opacity="0.6"/><circle cx="62" cy="22" r="24" fill="#EBDCBB" stroke="#CDB48A" stroke-opacity="0.7" stroke-width="1.5"/><circle cx="70.4" cy="29.2" r="3.3600000000000003" fill="#CDB48A" opacity="0.6"/><circle cx="0" cy="0" r="34" fill="#EBDCBB" stroke="#CDB48A" stroke-opacity="0.7" stroke-width="1.5"/><circle cx="11.899999999999999" cy="10.2" r="4.760000000000001" fill="#CDB48A" opacity="0.6"/><circle cx="-28" cy="34" r="26" fill="#EBDCBB" stroke="#CDB48A" stroke-opacity="0.7" stroke-width="1.5"/><circle cx="-18.9" cy="41.8" r="3.6400000000000006" fill="#CDB48A" opacity="0.6"/><circle cx="30" cy="34" r="30" fill="#EBDCBB" stroke="#CDB48A" stroke-opacity="0.7" stroke-width="1.5"/><circle cx="40.5" cy="43" r="4.2" fill="#CDB48A" opacity="0.6"/><circle cx="-12" cy="62" r="22" fill="#EBDCBB" stroke="#CDB48A" stroke-opacity="0.7" stroke-width="1.5"/><circle cx="-4.300000000000001" cy="68.6" r="3.08" fill="#CDB48A" opacity="0.6"/><circle cx="44" cy="52" r="20" fill="#EBDCBB" stroke="#CDB48A" stroke-opacity="0.7" stroke-width="1.5"/><circle cx="51" cy="58" r="2.8000000000000003" fill="#CDB48A" opacity="0.6"/></g></g></svg>
