<svg xmlns="http://www.w3.org/2000/svg" viewBox="0 0 888 440" width="888" height="440"><defs>
    <linearGradient id="gMuscle" x1="0" y1="0" x2="0" y2="1"><stop offset="0" stop-color="#E0AE9F"/><stop offset="0.5" stop-color="#B9776A"/><stop offset="1" stop-color="#8A4F43"/></linearGradient>
    <linearGradient id="gMuted" x1="0" y1="0" x2="0" y2="1"><stop offset="0" stop-color="#DCC5B9"/><stop offset="0.5" stop-color="#CBAE9F"/><stop offset="1" stop-color="#A98B7D"/></linearGradient>
    <linearGradient id="gTendon" x1="0" y1="0" x2="1" y2="0"><stop offset="0" stop-color="#EFE9DE"/><stop offset="0.5" stop-color="#EFE9DE"/><stop offset="1" stop-color="#CFC5B4"/></linearGradient>
    <linearGradient id="gVessel" x1="0" y1="0" x2="0" y2="1"><stop offset="0" stop-color="#DEA69E"/><stop offset="0.5" stop-color="#C4807A"/><stop offset="1" stop-color="#95574F"/></linearGradient>
    <linearGradient id="gSkin" x1="0" y1="0" x2="0" y2="1"><stop offset="0" stop-color="#F3EAE0"/><stop offset="0.5" stop-color="#EBDFD2"/><stop offset="1" stop-color="#CDB9A6"/></linearGradient>
    <radialGradient id="gFat" cx="0.35" cy="0.3" r="0.8"><stop offset="0" stop-color="#F7EEDA"/><stop offset="0.55" stop-color="#EBDCBB"/><stop offset="1" stop-color="#CDB48A"/></radialGradient>
    <radialGradient id="gLiver" cx="0.3" cy="0.25" r="0.8"><stop offset="0" stop-color="#BC8575"/><stop offset="0.55" stop-color="#9B6557"/><stop offset="1" stop-color="#6E4036"/></radialGradient>
    <radialGradient id="gBrain" cx="0.35" cy="0.25" r="0.8"><stop offset="0" stop-color="#EDD9D0"/><stop offset="0.55" stop-color="#D9BBB0"/><stop offset="1" stop-color="#B38E85"/></radialGradient>
    <radialGradient id="gLumen" cx="0.5" cy="0.5" r="0.8"><stop offset="0" stop-color="#E9C8C0"/><stop offset="0.55" stop-color="#95574F"/><stop offset="1" stop-color="#95574F"/></radialGradient>
    <radialGradient id="gRbc" cx="0.4" cy="0.4" r="0.8"><stop offset="0" stop-color="#D27B72"/><stop offset="0.55" stop-color="#B2534B"/><stop offset="1" stop-color="#B2534B"/></radialGradient>
    <radialGradient id="gMito" cx="0.35" cy="0.3" r="0.8"><stop offset="0" stop-color="#E8CFBF"/><stop offset="0.55" stop-color="#CDA893"/><stop offset="1" stop-color="#8E5A4C"/></radialGradient>
    <radialGradient id="gMol1" cx="0.35" cy="0.3" r="0.8"><stop offset="0" stop-color="#F4F1EB"/><stop offset="0.55" stop-color="#A9B3BC"/><stop offset="1" stop-color="#7F8B95"/></radialGradient>
    <radialGradient id="gMol2" cx="0.35" cy="0.3" r="0.8"><stop offset="0" stop-color="#F4F1EB"/><stop offset="0.55" stop-color="#ABA597"/><stop offset="1" stop-color="#827C70"/></radialGradient>
    <radialGradient id="gMol3" cx="0.35" cy="0.3" r="0.8"><stop offset="0" stop-color="#F4F1EB"/><stop offset="0.55" stop-color="#CFBEA8"/><stop offset="1" stop-color="#A28F77"/></radialGradient>
    <radialGradient id="gSat" cx="0.35" cy="0.3" r="0.8"><stop offset="0" stop-color="#D8CFE0"/><stop offset="0.55" stop-color="#9C8FA8"/><stop offset="1" stop-color="#6F6380"/></radialGradient>
    <filter id="shadow" x="-20%" y="-20%" width="140%" height="160%"><feDropShadow dx="0" dy="10" stdDeviation="10" flood-color="#362D28" flood-opacity="0.14"/></filter>
    <filter id="soft" x="-20%" y="-20%" width="140%" height="160%"><feDropShadow dx="0" dy="4" stdDeviation="4" flood-color="#362D28" flood-opacity="0.10"/></filter>
  </defs>
    <g ><g opacity="0.93"><circle cx="716.0" cy="339.4" r="6.6" fill="#ABA597"/><circle cx="714.0" cy="337.4" r="1.8" fill="#fff" opacity="0.55"/></g><g opacity="0.79"><circle cx="735.5" cy="367.8" r="4.5" fill="#ABA597"/><circle cx="734.2" cy="366.4" r="1.3" fill="#fff" opacity="0.55"/></g><g opacity="0.65"><circle cx="757.5" cy="377.2" r="5.8" fill="#ABA597"/><circle cx="755.7" cy="375.4" r="1.6" fill="#fff" opacity="0.55"/></g><g opacity="0.50"><circle cx="774.8" cy="396.6" r="4.3" fill="#ABA597"/><circle cx="773.6" cy="395.3" r="1.2" fill="#fff" opacity="0.55"/></g><g opacity="0.36"><circle cx="804.6" cy="407.0" r="5.5" fill="#ABA597"/><circle cx="803.0" cy="405.4" r="1.5" fill="#fff" opacity="0.55"/></g><g opacity="0.22"><circle cx="815.8" cy="413.5" r="7.2" fill="#ABA597"/><circle cx="813.7" cy="411.4" r="2.0" fill="#fff" opacity="0.55"/></g></g>
    <g transform="translate(240 245) rotate(-25) scale(1)" ><g><rect x="-180" y="-24" width="360" height="48" rx="24" fill="#EFE9DE" stroke="#CFC5B4" stroke-width="1.5"/>
    <rect x="-180" y="-24" width="108" height="48" rx="24" fill="#362D28"/>
    <rect x="-100.8" y="-24" width="36" height="48" fill="#362D28"/>
    <rect x="28.80000000000001" y="-12" width="72" height="24" rx="3" fill="#F6F4F0" stroke="#CFC5B4" stroke-width="1"/>
    <rect x="136.8" y="-14.399999999999999" width="36" height="57.599999999999994" rx="4" fill="#ABA597"/>
    <circle cx="0" cy="16" r="4" fill="#A9B3BC"/>
  </g></g>
    <g transform="translate(650 262) rotate(0) scale(1)" ><g ><path d="M-148,-16.520000000000003 L-224,-9.44 L-224,9.44 L-148,16.520000000000003 Z" fill="#EFE9DE"/><path d="M148,-16.520000000000003 L224,-9.44 L224,9.44 L148,16.520000000000003 Z" fill="#EFE9DE"/><path d="M-160,0 C-160,-32.45 -72,-59 0,-59 C72,-59 160,-32.45 160,0 C160,32.45 72,59 0,59 C-72,59 -160,32.45 -160,0 Z" fill="#B9776A" stroke="#8A4F43" stroke-opacity="0.5" stroke-width="1.5"/><path d="M-128,-20.65 C-48,-47.2 40,-47.2 120,-23.6" fill="none" stroke="#fff" stroke-opacity="0.22" stroke-width="10.62" stroke-linecap="round"/><path d="M-153.6,-8.5 C-64,-38.7 62.08,-38.7 155.2,-8.5" fill="none" stroke="#7A4539" stroke-opacity="0.32" stroke-width="1.6"/><path d="M-153.6,-6.4 C-64,-29.0 62.08,-29.0 155.2,-6.4" fill="none" stroke="#7A4539" stroke-opacity="0.32" stroke-width="1.6"/><path d="M-153.6,-4.3 C-64,-19.4 62.08,-19.4 155.2,-4.3" fill="none" stroke="#7A4539" stroke-opacity="0.32" stroke-width="1.6"/><path d="M-153.6,-2.1 C-64,-9.7 62.08,-9.7 155.2,-2.1" fill="none" stroke="#7A4539" stroke-opacity="0.32" stroke-width="1.6"/><path d="M-153.6,0.0 C-64,0.0 62.08,0.0 155.2,0.0" fill="none" stroke="#7A4539" stroke-opacity="0.32" stroke-width="1.6"/><path d="M-153.6,2.1 C-64,9.7 62.08,9.7 155.2,2.1" fill="none" stroke="#7A4539" stroke-opacity="0.32" stroke-width="1.6"/><path d="M-153.6,4.3 C-64,19.4 62.08,19.4 155.2,4.3" fill="none" stroke="#7A4539" stroke-opacity="0.32" stroke-width="1.6"/><path d="M-153.6,6.4 C-64,29.0 62.08,29.0 155.2,6.4" fill="none" stroke="#7A4539" stroke-opacity="0.32" stroke-width="1.6"/><path d="M-153.6,8.5 C-64,38.7 62.08,38.7 155.2,8.5" fill="none" stroke="#7A4539" stroke-opacity="0.32" stroke-width="1.6"/></g></g></svg>
